<?xml version="1.0" standalone="no"?>
<!DOCTYPE svg PUBLIC "-//W3C//DTD SVG 20010904//EN"
 "http://www.w3.org/TR/2001/REC-SVG-20010904/DTD/svg10.dtd">
<svg version="1.0" xmlns="http://www.w3.org/2000/svg"
 width="1602.000000pt" height="1602.000000pt" viewBox="0 0 1602.000000 1602.000000"
 preserveAspectRatio="xMidYMid meet">
<metadata>
Created by potrace 1.11, written by Peter Selinger 2001-2013
</metadata>
<g transform="translate(0.000000,1602.000000) scale(0.100000,-0.100000)"
fill="#000000" stroke="none">
<path d="M7595 15764 c-22 -2 -107 -8 -190 -14 -204 -15 -575 -63 -802 -105
-2108 -386 -3951 -1626 -5113 -3440 -1200 -1873 -1540 -4188 -929 -6325 367
-1284 1037 -2426 1975 -3365 1133 -1135 2547 -1877 4114 -2159 751 -135 1553
-156 2325 -60 2400 298 4541 1730 5755 3849 479 838 801 1766 944 2730 162
1088 85 2233 -223 3295 -670 2315 -2370 4188 -4596 5064 -691 273 -1386 436
-2175 512 -153 15 -970 29 -1085 18z m166 -758 c166 -30 293 -137 353 -298 32
-88 39 -130 23 -152 -12 -16 -182 -65 -227 -66 -29 0 -40 17 -59 83 -21 75
-57 129 -104 153 -40 21 -123 22 -164 1 -107 -56 -161 -239 -149 -512 11 -275
77 -469 180 -531 37 -22 121 -22 163 -1 66 35 113 127 113 224 0 57 28 87 73
79 18 -3 70 -10 117 -16 47 -7 91 -16 97 -22 17 -14 16 -63 -3 -156 -51 -249
-236 -402 -485 -402 -324 0 -520 277 -554 780 -8 117 9 317 35 419 61 241 193
380 395 416 90 17 105 17 196 1z m1275 -70 c62 -13 117 -26 123 -30 19 -12 13
-54 -44 -331 -31 -148 -54 -269 -53 -270 7 -6 410 -87 414 -83 2 3 29 126 59
274 31 148 58 277 61 286 8 28 45 31 136 13 112 -22 145 -33 152 -51 9 -23
-291 -1476 -309 -1493 -13 -13 -25 -13 -88 -3 -117 20 -169 36 -181 55 -8 13
3 88 52 328 35 171 61 313 58 316 -7 7 -364 82 -392 83 -19 0 -25 -22 -84
-311 -54 -263 -67 -313 -84 -324 -18 -12 -38 -10 -135 10 -120 24 -145 39
-136 79 3 12 70 338 149 726 80 388 147 713 151 722 4 9 14 19 23 21 10 3 17
5 17 6 0 0 50 -10 111 -23z m-2724 -180 c25 -8 68 -26 96 -40 51 -26 165 -124
183 -157 15 -28 -8 -64 -94 -147 -57 -54 -80 -71 -94 -65 -10 3 -44 30 -75 60
-76 72 -135 97 -205 90 -62 -7 -132 -43 -162 -86 -29 -40 -28 -108 2 -152 35
-53 92 -74 272 -99 297 -41 377 -68 477 -159 70 -64 101 -116 129 -217 75
-275 -76 -520 -369 -595 -144 -37 -296 -20 -424 48 -81 42 -198 150 -198 182
0 34 152 201 184 201 11 0 47 -26 80 -59 106 -101 191 -128 300 -97 74 22 141
82 157 139 15 55 -3 122 -44 165 -40 41 -86 55 -303 87 -205 30 -265 45 -346
86 -87 44 -149 111 -189 206 -29 69 -33 89 -33 173 -1 79 3 106 24 158 29 74
105 164 179 211 127 82 312 109 453 67z m4898 -166 c122 -61 122 -63 48 -205
-39 -74 -59 -101 -75 -103 -29 -4 -200 83 -214 110 -10 18 -4 35 41 122 48 94
72 126 92 126 5 0 53 -23 108 -50z m289 -148 c46 -26 89 -55 95 -65 9 -14 1
-38 -44 -124 -30 -58 -63 -111 -72 -117 -13 -8 -35 -2 -99 29 -100 49 -129 70
-129 97 0 22 96 208 114 220 22 15 52 6 135 -40z m-614 -55 c76 -40 101 -57
103 -75 2 -14 -84 -192 -236 -485 -131 -254 -246 -484 -255 -511 -33 -97 -17
-179 44 -231 78 -65 175 -83 249 -45 76 39 107 90 400 660 106 206 197 381
203 388 16 20 44 14 137 -33 91 -46 115 -69 103 -102 -11 -31 -444 -865 -486
-938 -90 -152 -223 -252 -369 -275 -206 -32 -470 103 -554 285 -53 114 -57
252 -10 390 24 69 174 368 443 883 89 169 80 166 228 89z m-5848 -46 c10 -11
38 -58 63 -105 36 -68 43 -89 34 -103 -8 -14 -302 -193 -338 -206 -4 -1 129
-245 298 -541 168 -296 306 -548 306 -561 0 -28 -4 -31 -113 -94 -95 -55 -125
-61 -149 -33 -9 9 -150 253 -314 542 -163 289 -298 526 -300 528 -1 2 -78 -40
-170 -93 -112 -63 -177 -95 -194 -93 -19 2 -35 23 -77 93 -56 96 -63 124 -37
146 34 29 940 539 956 539 10 0 25 -9 35 -19z m7235 -778 c66 -55 787 -703
793 -713 4 -6 4 -21 1 -33 -8 -30 -147 -177 -168 -177 -10 0 -82 59 -162 130
-79 72 -148 130 -153 129 -4 0 -190 -205 -413 -456 -223 -250 -415 -460 -427
-465 -28 -14 -43 -4 -145 92 -43 39 -78 80 -78 89 0 10 187 226 415 482 228
255 415 466 415 470 0 3 -65 63 -145 134 -115 103 -145 134 -145 154 0 19 23
50 78 109 42 45 82 82 89 82 6 0 26 -12 45 -27z m-8536 -323 c42 -20 91 -56
124 -89 132 -133 169 -281 110 -448 -11 -31 -18 -58 -16 -60 2 -2 158 -51 347
-109 336 -102 369 -116 369 -153 0 -17 -185 -197 -210 -206 -9 -3 -170 47
-359 110 l-344 114 -53 -52 -53 -52 214 -225 c132 -138 215 -233 215 -245 0
-12 -34 -52 -87 -103 -71 -67 -93 -82 -114 -80 -21 2 -144 126 -532 535 -278
292 -511 541 -517 552 -7 14 -7 27 -1 39 12 22 374 363 426 401 111 80 205
111 326 108 75 -3 96 -8 155 -37z m4514 -520 c870 -46 1676 -313 2393 -792
504 -336 969 -801 1305 -1305 726 -1087 970 -2423 677 -3703 -125 -548 -359
-1087 -677 -1563 -336 -504 -801 -969 -1305 -1305 -1529 -1022 -3516 -1067
-5086 -115 -108 66 -287 184 -287 190 0 2 150 1 333 -2 l332 -7 189 52 c255
69 320 91 324 112 4 18 -38 51 -343 264 -382 268 -679 460 -828 536 -70 35
-85 34 -223 -11 -127 -41 -176 -47 -197 -23 -17 18 -7 56 218 813 129 437 242
813 251 836 18 50 42 62 66 33 15 -19 15 -25 1 -72 -8 -28 -19 -62 -24 -75
-23 -61 -10 -119 80 -376 218 -616 319 -869 351 -875 23 -4 169 116 318 262
105 103 132 135 132 156 0 15 -105 432 -234 927 l-235 899 10 150 c9 137 13
155 44 224 50 111 118 360 102 376 -12 12 -1149 -26 -1176 -39 -24 -11 -26
-18 -31 -92 -6 -90 -12 -105 -44 -105 -29 0 -58 33 -137 150 -121 183 -169
264 -169 289 0 20 23 48 91 114 122 118 132 124 164 103 14 -9 34 -34 45 -56
l20 -40 93 0 c50 1 352 7 670 14 l579 14 29 28 c32 30 37 65 14 84 -12 10
-147 9 -667 -3 -594 -14 -655 -14 -670 0 -23 21 -23 36 3 59 20 18 55 20 691
30 517 9 675 14 694 25 25 13 43 54 29 67 -3 4 -291 9 -638 12 l-632 5 -3 23
c-4 27 20 57 60 78 35 18 382 26 2018 50 l1185 17 80 72 80 72 195 -13 c265
-18 293 -18 320 4 17 13 21 24 16 40 -14 44 -52 52 -374 77 -169 13 -326 27
-348 29 -39 5 -43 3 -54 -25 -12 -28 -15 -29 -59 -24 -191 22 -854 72 -1466
110 -401 25 -745 50 -762 56 -47 15 -43 44 18 120 29 35 65 91 80 124 26 54
29 70 29 161 0 172 -47 280 -154 351 -94 63 -241 88 -353 59 -158 -40 -249
-126 -303 -286 -37 -110 -18 -267 45 -362 29 -44 30 -58 10 -98 -20 -39 -34
-45 -146 -69 -185 -38 -265 -84 -428 -244 -81 -80 -290 -338 -421 -522 -35
-49 -97 -133 -136 -186 -40 -53 -73 -102 -74 -110 -5 -35 5 -53 87 -146 47
-54 128 -151 180 -216 112 -140 361 -430 433 -504 73 -75 73 -91 5 -192 -91
-133 -101 -164 -115 -336 -7 -93 -41 -327 -91 -615 -81 -472 -236 -1278 -249
-1293 -8 -9 -179 241 -272 398 -531 902 -749 1958 -618 2996 134 1053 602
2010 1351 2758 754 753 1705 1218 2764 1351 281 36 535 45 825 30z m5208 -327
c22 -20 528 -744 544 -779 6 -13 8 -29 5 -38 -7 -17 -104 -91 -132 -99 -17 -5
-439 -32 -1153 -74 l-133 -8 51 -67 c111 -147 340 -483 340 -498 0 -34 -166
-153 -206 -148 -22 3 -69 64 -306 403 -154 220 -286 412 -294 428 -20 37 -9
55 72 113 l67 47 626 40 c344 22 628 41 630 43 2 1 -13 22 -32 46 -83 102
-307 433 -307 455 0 17 17 36 65 71 65 47 124 82 136 82 4 0 16 -8 27 -17z
m-10903 -403 c314 -45 753 -347 885 -609 97 -193 68 -395 -78 -553 -103 -111
-218 -154 -387 -145 -126 7 -220 34 -360 102 -399 195 -645 478 -645 741 1
212 164 414 373 459 76 16 122 18 212 5z m11828 -1102 c32 -69 327 -851 327
-868 0 -10 -6 -22 -13 -28 -24 -20 -200 -82 -217 -77 -21 7 -26 18 -154 354
-58 150 -107 275 -110 278 -4 4 -294 -102 -303 -111 -2 -1 35 -103 82 -225 47
-122 85 -228 85 -235 0 -22 -32 -42 -118 -75 -90 -33 -124 -38 -139 -18 -6 6
-47 110 -93 230 -45 119 -84 217 -85 217 -9 0 -351 -133 -357 -138 -4 -4 49
-153 118 -332 98 -257 122 -329 115 -346 -6 -15 -39 -33 -103 -58 -101 -39
-130 -43 -146 -23 -6 6 -87 214 -182 461 -116 305 -170 456 -166 472 7 26 -63
-3 826 339 305 117 569 213 586 214 26 1 34 -5 47 -31z m-12440 -264 c139 -36
249 -119 305 -230 70 -140 70 -279 2 -496 -24 -76 -41 -140 -39 -142 2 -2 121
-44 264 -92 304 -104 286 -86 235 -240 -33 -97 -49 -124 -78 -124 -8 0 -333
107 -720 237 -571 192 -706 240 -713 257 -8 16 6 68 60 227 39 113 88 244 110
290 121 253 342 373 574 313z m12950 -1406 c12 -10 20 -47 31 -157 8 -81 11
-151 7 -159 -5 -9 -222 -138 -482 -288 -261 -151 -481 -278 -489 -284 -11 -8
-5 -10 25 -6 22 3 251 26 508 52 410 40 471 44 484 32 9 -9 18 -54 25 -117 9
-87 8 -105 -4 -117 -11 -11 -201 -34 -763 -90 -749 -76 -749 -76 -766 -56 -24
30 -48 298 -28 317 8 7 234 139 504 294 269 155 485 281 481 281 -4 0 -235
-23 -513 -51 -597 -60 -539 -69 -549 86 -6 86 -4 102 10 114 11 9 237 36 728
86 392 40 727 73 744 74 16 1 38 -5 47 -11z m-13450 -305 c39 -80 48 -109 41
-121 -6 -10 -44 -34 -85 -54 -121 -61 -169 -128 -169 -236 0 -56 33 -123 72
-146 39 -24 107 -24 147 0 41 24 71 68 182 268 109 197 176 273 283 326 178
88 399 49 541 -94 104 -105 141 -212 132 -381 -6 -113 -37 -214 -92 -300 -47
-74 -144 -159 -227 -199 -123 -59 -125 -59 -193 75 -67 132 -66 147 13 173 28
10 71 31 96 48 182 120 160 409 -32 435 -98 13 -149 -34 -266 -248 -165 -301
-255 -387 -427 -411 -137 -19 -267 21 -363 112 -219 207 -175 614 87 794 75
52 166 87 190 75 10 -6 42 -58 70 -116z m12540 -2895 c327 -128 522 -209 528
-220 11 -20 -52 -201 -80 -230 -14 -15 -68 -20 -410 -37 -217 -12 -396 -22
-397 -24 -2 -2 128 -55 289 -117 381 -148 377 -146 377 -179 0 -55 -56 -171
-82 -171 -21 0 -1044 403 -1060 417 -25 22 -23 35 18 141 39 101 54 122 87
122 59 0 751 40 754 44 4 3 -78 36 -489 196 -117 46 -159 67 -163 82 -8 22 30
133 53 161 8 9 24 17 35 17 11 0 254 -91 540 -202z m-11463 85 c273 -74 370
-410 179 -618 -54 -58 -92 -79 -118 -65 -18 9 -90 116 -104 153 -4 12 4 29 26
55 53 59 67 84 67 120 0 47 -28 90 -72 113 -160 82 -644 -117 -674 -277 -10
-54 13 -111 59 -148 31 -25 47 -30 91 -30 30 -1 57 2 60 5 4 3 -7 43 -24 88
-22 62 -27 87 -20 101 5 10 46 33 91 50 73 28 83 30 102 17 27 -18 161 -359
152 -386 -7 -22 -8 -23 -289 -132 -125 -49 -239 -89 -252 -89 -27 0 -51 31
-60 78 -6 29 -2 38 26 67 l32 33 -45 31 c-108 74 -169 182 -169 301 0 166 118
315 342 429 224 115 430 151 600 104z m432 -700 c9 -10 52 -89 97 -175 94
-179 94 -181 11 -223 -65 -33 -95 -32 -117 3 -9 15 -18 29 -19 30 -2 2 -162
-80 -357 -183 l-355 -188 16 -34 c12 -25 13 -39 6 -51 -14 -23 -103 -71 -131
-72 -27 0 -41 21 -137 203 -81 155 -82 170 -11 209 67 37 98 36 122 -1 l18
-30 349 185 c193 101 352 186 354 188 2 3 -2 20 -9 40 -15 43 -6 57 60 91 55
29 83 31 103 8z m10227 -35 c74 -41 91 -57 91 -83 0 -12 -54 -116 -120 -230
-66 -115 -119 -209 -118 -210 15 -12 190 -107 192 -104 2 2 39 65 82 139 89
155 100 170 127 170 20 0 118 -51 150 -78 9 -8 17 -25 17 -36 0 -12 -38 -86
-84 -166 -46 -80 -82 -148 -80 -152 10 -16 226 -130 233 -122 4 5 56 95 116
199 137 240 140 245 171 245 34 0 161 -76 167 -101 7 -25 -359 -666 -384 -674
-23 -8 -29 -4 -558 300 -341 196 -453 265 -457 282 -5 17 36 95 156 305 178
309 203 348 227 348 8 0 41 -14 72 -32z m-9985 -417 c9 -10 100 -141 201 -292
131 -193 185 -281 185 -301 0 -23 4 -28 24 -28 22 0 126 -110 463 -493 48 -55
44 -74 -33 -140 -36 -31 -74 -57 -85 -57 -23 0 -19 -4 -198 198 -79 89 -147
162 -151 162 -9 0 -170 -141 -170 -149 0 -4 50 -63 110 -131 67 -76 110 -133
110 -146 0 -37 -133 -150 -163 -138 -9 3 -66 62 -127 130 -97 109 -114 123
-128 112 -9 -7 -86 -75 -171 -150 -99 -89 -163 -138 -177 -138 -15 0 -42 23
-81 68 -75 84 -76 86 -62 114 6 13 168 163 360 333 478 424 503 448 385 363
-74 -53 -76 -52 -231 176 l-138 205 -97 -67 -97 -66 93 -141 c52 -77 94 -150
94 -163 0 -17 -18 -34 -76 -72 -42 -28 -82 -50 -89 -50 -18 0 -45 34 -134 168
-45 67 -83 122 -86 122 -2 0 -88 -57 -190 -126 -124 -83 -194 -124 -208 -122
-25 4 -126 142 -127 174 0 11 10 30 23 41 12 11 148 105 302 208 154 104 355
240 447 302 92 62 176 113 186 113 11 0 26 -8 36 -19z m9616 -468 c55 -19 70
-30 70 -54 0 -33 -78 -177 -97 -181 -10 -2 -40 2 -68 10 -82 21 -129 2 -164
-65 -43 -84 39 -222 212 -357 225 -174 379 -198 446 -69 19 38 14 116 -11 153
-13 19 -28 35 -34 37 -6 2 -32 -24 -58 -57 -58 -74 -79 -87 -109 -67 -78 51
-127 99 -127 123 0 18 34 69 108 162 130 166 139 175 163 169 33 -9 448 -341
455 -364 4 -14 -2 -33 -16 -53 -31 -43 -52 -52 -99 -41 l-40 9 -6 -57 c-11
-89 -22 -124 -63 -187 -38 -57 -95 -106 -157 -133 -50 -22 -181 -26 -255 -7
-264 67 -564 328 -632 549 -93 308 179 580 482 480z m-648 -515 c33 -28 746
-795 757 -816 8 -15 9 -28 2 -40 -9 -18 -142 -140 -168 -156 -10 -6 -356 133
-711 285 -24 11 -42 15 -40 10 1 -4 110 -122 241 -261 162 -173 237 -261 237
-276 0 -27 -112 -134 -140 -134 -25 0 -800 827 -800 854 0 27 159 175 188 176
13 0 181 -66 374 -146 192 -80 351 -144 353 -142 2 2 -102 116 -230 253 -183
195 -234 256 -235 277 0 20 14 39 57 77 58 52 87 61 115 39z m-7736 -445 c147
-126 272 -236 278 -245 7 -12 6 -23 -2 -40 -23 -42 -110 -128 -129 -128 -11 0
-104 72 -208 160 -103 88 -189 159 -190 158 -2 -2 -32 -38 -69 -81 -36 -44
-66 -82 -66 -86 0 -4 59 -57 130 -117 72 -60 133 -119 136 -132 5 -16 -3 -34
-29 -65 -62 -75 -86 -97 -106 -97 -11 0 -79 50 -151 111 -72 61 -135 109 -140
107 -16 -6 -169 -192 -164 -200 3 -5 90 -80 194 -168 104 -88 192 -169 195
-181 12 -36 -107 -172 -142 -163 -11 3 -145 112 -299 242 -236 201 -279 242
-279 264 0 21 79 120 342 431 404 477 387 457 412 457 11 0 135 -99 287 -227z
m7089 -190 c51 -67 55 -91 18 -122 l-30 -26 232 -318 c127 -174 234 -320 238
-323 3 -3 16 1 29 10 45 32 72 19 128 -63 18 -26 21 -39 14 -57 -13 -34 -291
-234 -325 -234 -21 0 -35 12 -63 53 -43 62 -45 89 -10 115 l27 19 -238 325
-238 326 -29 -18 c-41 -24 -62 -16 -103 42 -57 78 -53 85 115 209 171 127 183
130 235 62z m-6525 -230 c187 -117 264 -184 307 -266 25 -46 28 -63 28 -147 0
-89 -2 -99 -34 -158 -66 -121 -164 -182 -292 -182 l-66 0 -7 -162 c-16 -402
-19 -417 -72 -404 -34 9 -181 104 -188 122 -3 8 1 108 9 222 23 338 23 320
-11 343 -16 10 -34 19 -40 19 -7 0 -65 -86 -130 -190 -66 -105 -127 -193 -137
-196 -12 -4 -48 12 -100 44 -76 47 -82 52 -82 84 0 26 62 133 294 506 271 435
296 472 321 472 17 0 90 -39 200 -107z m5938 -628 c122 -214 226 -396 230
-403 6 -9 62 18 211 103 112 63 212 115 222 115 32 0 126 -151 113 -183 -8
-21 -594 -357 -622 -357 -12 0 -28 10 -36 22 -9 12 -129 221 -268 464 -139
243 -254 442 -255 440 -1 -1 6 -26 17 -55 14 -36 17 -57 11 -69 -5 -10 -64
-39 -133 -66 -68 -27 -127 -52 -132 -57 -5 -4 68 -199 163 -438 140 -349 171
-433 162 -449 -11 -21 -151 -82 -187 -82 -11 0 -28 8 -36 18 -8 9 -88 202
-178 427 -90 226 -166 414 -170 418 -4 4 -65 -15 -135 -43 -84 -34 -137 -49
-152 -45 -13 3 -23 3 -23 1 0 -2 47 -207 105 -455 58 -248 105 -459 105 -470
0 -29 -19 -39 -130 -66 -90 -21 -107 -23 -125 -11 -11 8 -126 152 -254 320
-129 169 -235 305 -237 303 -2 -1 33 -156 76 -342 44 -187 77 -348 74 -357 -5
-17 -27 -26 -113 -48 -60 -16 -87 -7 -100 32 -14 44 -251 1064 -251 1081 0 27
37 45 139 67 74 17 108 21 120 13 9 -5 122 -148 250 -316 129 -169 236 -305
238 -304 1 2 -34 155 -77 341 -58 247 -76 344 -69 357 10 20 58 36 139 46 30
3 64 12 75 19 47 29 757 306 774 301 14 -3 21 2 25 17 7 30 141 107 181 103
28 -2 42 -23 253 -392z m-5178 233 c112 -34 223 -127 265 -223 27 -60 49 -176
40 -206 -10 -29 -34 -37 -132 -45 -106 -8 -107 -7 -116 89 -10 105 -69 167
-159 167 -64 0 -98 -31 -98 -88 0 -45 20 -75 135 -202 141 -156 170 -214 170
-340 0 -74 -4 -93 -31 -150 -117 -245 -411 -288 -627 -90 -76 70 -121 153
-138 256 -13 76 -8 118 16 128 9 3 57 11 107 18 85 11 91 11 104 -7 8 -10 14
-42 14 -70 0 -109 79 -201 183 -212 56 -6 107 27 126 83 12 35 12 44 -4 77 -9
20 -66 92 -126 159 -65 74 -122 149 -141 188 -30 58 -33 72 -33 150 1 70 6 95
27 142 73 157 242 229 418 176z m1923 -493 c192 -14 356 -29 364 -34 10 -5 26
-3 42 5 17 9 142 22 366 37 285 20 344 22 362 11 18 -11 22 -26 28 -100 6 -71
5 -88 -8 -102 -13 -12 -68 -19 -257 -33 -133 -9 -244 -19 -246 -22 -3 -2 -2
-53 2 -112 l7 -108 76 6 c42 4 124 10 182 13 105 7 107 6 122 -17 22 -34 27
-174 6 -194 -11 -11 -55 -18 -165 -26 -82 -6 -160 -13 -173 -15 l-24 -5 7
-127 c4 -70 11 -130 14 -133 4 -3 122 2 261 13 304 22 285 28 295 -99 10 -124
34 -115 -359 -141 -182 -13 -346 -25 -366 -28 -25 -4 -41 0 -56 13 -20 17 -24
45 -58 523 -19 277 -38 506 -40 509 -3 2 -5 -8 -5 -23 0 -15 -5 -36 -11 -48
-10 -19 -18 -20 -162 -16 l-152 3 -32 -460 c-29 -406 -35 -461 -50 -473 -13
-10 -40 -12 -103 -7 -108 8 -119 11 -126 40 -3 13 9 224 26 470 25 348 30 449
20 455 -6 4 -69 11 -138 15 -70 4 -135 11 -146 17 -17 9 -18 19 -14 106 7 117
14 126 103 117 33 -3 217 -17 408 -30z m-1139 -482 c238 -57 236 -55 210 -159
-9 -38 -25 -78 -35 -89 -19 -19 -20 -19 -196 24 -245 61 -242 60 -252 80 -7
12 -4 40 9 90 18 73 33 101 54 101 6 0 100 -21 210 -47z"/>
<path d="M3489 12976 c-55 -15 -115 -55 -210 -144 l-73 -69 134 -142 135 -143
95 99 c143 148 173 234 111 319 -52 73 -115 99 -192 80z"/>
<path d="M7625 12585 c-587 -53 -1097 -192 -1615 -442 -1413 -681 -2381 -2027
-2574 -3578 -54 -435 -46 -890 24 -1325 75 -463 221 -905 441 -1340 69 -138
212 -384 228 -394 23 -14 264 1337 286 1604 8 91 20 183 28 205 14 40 62 126
99 178 l19 27 -62 78 c-35 42 -111 131 -169 197 -58 66 -149 174 -202 240 -52
66 -135 165 -183 220 -97 110 -125 159 -125 220 1 57 20 92 155 275 509 690
665 841 945 911 47 12 86 22 88 24 1 1 -8 36 -22 76 -14 41 -28 112 -31 159
-16 216 108 436 298 526 218 103 487 66 643 -90 54 -55 89 -114 120 -206 29
-85 27 -295 -3 -373 -13 -32 -30 -69 -39 -83 -9 -13 -14 -27 -11 -31 4 -3 285
-23 624 -44 340 -21 790 -52 1000 -70 l382 -33 42 23 c48 27 67 27 539 -13
228 -19 272 -25 313 -45 63 -31 99 -78 105 -141 6 -65 -2 -93 -39 -135 -51
-58 -103 -67 -299 -55 -91 5 -188 12 -217 15 l-52 5 -64 -60 c-35 -32 -76 -64
-91 -70 -22 -8 -1452 -39 -1855 -40 -62 0 -63 0 -57 -25 9 -36 -13 -112 -40
-138 -18 -17 -24 -33 -24 -70 0 -51 -25 -110 -59 -141 -15 -14 -21 -31 -21
-62 0 -51 -41 -188 -64 -213 -9 -10 -23 -55 -31 -102 -20 -114 -55 -237 -97
-339 -32 -75 -36 -99 -42 -205 l-7 -120 236 -903 c129 -497 235 -916 235 -933
0 -44 -26 -99 -68 -141 -48 -50 -33 -48 36 5 111 85 232 160 270 167 22 4 102
3 178 -1 77 -4 160 -8 185 -8 l46 -1 -13 52 c-19 70 -18 221 2 316 46 226 205
393 412 433 88 17 281 7 352 -19 200 -71 322 -204 374 -408 18 -71 21 -214 5
-298 -6 -32 -9 -60 -7 -62 3 -2 189 -11 414 -19 535 -20 1742 -69 2458 -100
547 -24 571 -25 615 -47 132 -66 120 -234 -20 -292 -32 -14 -119 -14 -788 0
-414 8 -756 15 -759 17 -4 1 -28 -19 -54 -45 -68 -68 -118 -91 -204 -92 l-71
-1 -373 -455 c-558 -680 -606 -736 -641 -750 -69 -29 -118 -9 -323 129 l-89
60 -71 -66 c-129 -120 -189 -129 -329 -48 -45 26 -213 133 -373 236 l-292 189
-31 -29 c-22 -21 -46 -32 -79 -36 -71 -10 -80 -14 -103 -46 -26 -37 -61 -55
-152 -78 -39 -10 -89 -30 -110 -44 -46 -31 -131 -64 -190 -73 -23 -4 -52 -15
-65 -25 -36 -28 -110 -52 -343 -116 -205 -55 -219 -57 -336 -58 -68 0 -123 -3
-123 -6 0 -10 373 -196 500 -249 1126 -469 2364 -481 3495 -35 156 61 439 198
585 282 1045 604 1808 1574 2140 2723 261 905 237 1889 -68 2780 -84 244 -233
571 -360 790 -474 820 -1159 1457 -2002 1863 -533 257 -1060 398 -1673 447
-168 13 -536 11 -712 -5z"/>
<path d="M5343 8570 c-526 -15 -595 -19 -619 -34 -21 -15 -25 -23 -20 -49 3
-18 8 -53 12 -79 6 -43 9 -48 33 -48 14 0 287 7 606 16 669 19 621 11 654 117
17 56 18 64 3 80 -9 10 -28 16 -46 16 -17 -1 -297 -9 -623 -19z"/>
<path d="M4547 8542 l-26 -28 29 -43 28 -44 -1 71 c-1 40 -2 72 -3 72 0 0 -12
-12 -27 -28z"/>
<path d="M7468 6449 c-188 -27 -313 -179 -339 -410 -12 -103 -2 -179 35 -271
14 -36 26 -74 26 -86 0 -46 -52 -50 -366 -31 l-182 11 -93 -63 c-185 -123
-309 -228 -309 -259 1 -16 66 -60 816 -556 872 -576 986 -647 1019 -634 34 13
167 143 409 400 314 333 636 685 665 726 41 58 30 61 -239 69 l-235 7 -300
-311 c-286 -297 -300 -310 -312 -288 -7 12 -12 28 -13 35 0 7 110 133 245 280
135 147 245 269 245 273 0 3 -62 9 -137 13 -269 13 -294 16 -291 39 3 19 10
20 183 18 99 -1 358 -6 575 -11 217 -5 441 -10 498 -10 l102 0 0 30 c0 17 -1
30 -2 30 -13 2 -1193 30 -1255 30 -76 0 -83 2 -83 20 0 14 7 20 23 20 12 0
332 -9 710 -20 l688 -20 22 23 c22 22 23 22 269 19 l246 -3 10 -28 10 -27 733
-13 733 -13 19 23 c16 20 16 24 3 37 -19 19 4 18 -826 52 -1643 68 -2459 100
-2685 103 -105 2 -120 4 -123 19 -2 10 6 30 17 44 53 67 82 253 58 369 -57
271 -270 408 -569 364z"/>
<path d="M5305 6189 c-20 -55 -294 -993 -291 -996 2 -3 13 0 24 6 35 19 165
42 197 35 41 -9 149 -63 278 -141 l108 -65 53 50 c29 27 70 59 92 70 21 11 47
28 56 38 16 18 15 19 -27 19 -109 1 -137 53 -370 695 -59 162 -109 297 -111
299 -2 2 -6 -2 -9 -10z"/>
<path d="M9579 5393 l-74 -75 -65 6 c-36 3 -85 8 -110 12 l-45 6 -191 -209
c-255 -279 -583 -641 -666 -734 l-67 -76 27 -26 c28 -26 204 -142 258 -170
l31 -16 201 242 c110 133 337 408 504 611 l303 370 83 -3 c70 -2 88 1 118 19
42 27 67 61 58 83 -6 16 -44 22 -210 31 l-82 4 -73 -75z"/>
<path d="M6110 5405 c-8 -9 -8 -15 -2 -15 12 0 26 19 19 26 -2 2 -10 -2 -17
-11z"/>
<path d="M6103 5244 c-3 -9 2 -23 13 -34 10 -10 228 -161 484 -336 382 -261
471 -319 497 -318 38 1 46 6 38 25 -5 13 -1004 679 -1019 679 -4 0 -9 -7 -13
-16z"/>
<path d="M5942 5122 c-23 -20 -42 -41 -42 -47 0 -16 921 -639 949 -642 34 -5
89 25 109 59 9 15 14 29 12 31 -4 3 -895 579 -965 623 -18 11 -25 8 -63 -24z"/>
<path d="M5749 4974 l-61 -59 34 -28 c76 -64 358 -265 586 -415 l242 -161 53
15 c51 15 131 56 141 73 5 7 -886 615 -921 628 -7 3 -40 -21 -74 -53z"/>
<path d="M2345 11690 c-87 -43 -116 -138 -71 -235 88 -192 547 -486 757 -485
141 1 221 138 157 268 -35 70 -152 180 -288 271 -264 176 -445 236 -555 181z"/>
<path d="M1735 10316 c-39 -17 -88 -66 -120 -121 -27 -46 -88 -205 -82 -212 2
-2 97 -35 210 -72 l206 -69 20 66 c36 123 43 154 43 218 0 94 -22 131 -101
172 -70 35 -124 41 -176 18z"/>
<path d="M4801 2798 c-81 -130 -85 -115 41 -179 114 -58 175 -54 217 15 27 43
27 89 0 133 -17 27 -101 93 -176 136 -7 5 -37 -34 -82 -105z"/>
</g>
</svg>
