<?xml version="1.0" standalone="no"?><!DOCTYPE svg PUBLIC "-//W3C//DTD SVG 1.1//EN" "http://www.w3.org/Graphics/SVG/1.1/DTD/svg11.dtd"><svg width="100%" height="100%" viewBox="0 0 1596 1602" version="1.1" xmlns="http://www.w3.org/2000/svg" xmlns:xlink="http://www.w3.org/1999/xlink" xml:space="preserve" style="fill-rule:evenodd;clip-rule:evenodd;stroke-linejoin:round;stroke-miterlimit:1.41421;"><g><path d="M717.11,1590.15c-26.305,-2.672 -52.737,-6.705 -78.564,-11.991c-50.808,-10.396 -100.785,-25.91 -148.542,-46.108c-46.886,-19.833 -92.107,-44.378 -134.406,-72.954c-41.896,-28.303 -81.291,-60.808 -117.093,-96.61c-35.801,-35.802 -68.307,-75.197 -96.61,-117.093c-28.576,-42.298 -53.121,-87.52 -72.954,-134.406c-20.198,-47.757 -35.712,-97.732 -46.108,-148.539c-5.286,-25.828 -9.319,-52.259 -11.991,-78.564c-2.709,-26.688 -4.085,-53.902 -4.085,-80.884c0,-26.983 1.376,-54.197 4.085,-80.884c2.672,-26.306 6.705,-52.737 11.991,-78.565c10.396,-50.807 25.91,-100.782 46.108,-148.539c19.833,-46.886 44.378,-92.107 72.954,-134.406c28.303,-41.895 60.809,-81.291 96.61,-117.093c35.802,-35.801 75.197,-68.306 117.093,-96.609c42.299,-28.576 87.52,-53.122 134.406,-72.955c47.757,-20.198 97.734,-35.711 148.542,-46.108c25.827,-5.286 52.259,-9.319 78.564,-11.99c26.688,-2.71 53.902,-4.085 80.884,-4.085c26.982,0 54.197,1.375 80.884,4.085c26.306,2.671 52.737,6.704 78.565,11.99c50.807,10.397 100.782,25.91 148.538,46.108c46.886,19.833 92.108,44.379 134.407,72.955c41.895,28.303 81.291,60.808 117.092,96.609c35.802,35.802 68.307,75.198 96.61,117.093c28.576,42.299 53.122,87.52 72.954,134.406c20.199,47.757 35.712,97.732 46.109,148.539c5.285,25.828 9.319,52.259 11.99,78.565c2.71,26.687 4.085,53.901 4.085,80.884c0,26.982 -1.375,54.196 -4.085,80.884c-2.671,26.305 -6.705,52.736 -11.99,78.564c-10.397,50.807 -25.91,100.782 -46.109,148.539c-19.832,46.886 -44.378,92.108 -72.954,134.406c-28.303,41.896 -60.808,81.291 -96.61,117.093c-35.801,35.802 -75.197,68.307 -117.092,96.61c-42.299,28.576 -87.521,53.121 -134.407,72.954c-47.756,20.198 -97.731,35.712 -148.538,46.108c-25.828,5.286 -52.259,9.319 -78.565,11.991c-26.687,2.709 -53.902,4.085 -80.884,4.085c-26.982,0 -54.196,-1.376 -80.884,-4.085ZM797.994,1581.24c-429.809,0 -778.237,-348.428 -778.237,-778.234c0,-429.806 348.428,-778.234 778.237,-778.234c429.806,0 778.234,348.428 778.234,778.234c0,429.806 -348.428,778.234 -778.234,778.234ZM912.068,1491.53c-1.124,-0.701 -1.926,-1.82 -2.226,-3.111l-24.999,-107.23c-0.087,-0.377 -0.131,-0.759 -0.131,-1.138c0,-0.925 0.257,-1.839 0.753,-2.639c0.702,-1.124 1.82,-1.926 3.111,-2.227l18.993,-4.426c0.379,-0.087 0.761,-0.131 1.137,-0.131c1.537,0 3.01,0.71 3.968,1.962l47.192,61.698c0.024,0.033 0.049,0.066 0.074,0.098c-0.325,-1.364 -0.612,-2.589 -0.86,-3.656l-14.779,-63.401c-0.09,-0.382 -0.131,-0.764 -0.131,-1.141c0,-2.27 1.555,-4.327 3.864,-4.862l12.271,-2.863c0.377,-0.087 0.759,-0.131 1.138,-0.131c0.925,0 1.839,0.257 2.639,0.753c0.013,0.009 0.027,0.02 0.041,0.028c0.524,-1.078 1.438,-1.973 2.638,-2.453l74.09,-29.638c0.608,-0.243 1.236,-0.36 1.856,-0.36c1.252,0 2.458,0.475 3.378,1.315c-0.101,-0.401 -0.151,-0.813 -0.151,-1.225c0,-0.442 0.058,-0.887 0.178,-1.321c0.349,-1.277 1.192,-2.366 2.344,-3.023l13.161,-7.504c0.78,-0.445 1.632,-0.658 2.472,-0.658c1.738,0 3.428,0.906 4.35,2.524c0,0 40.702,71.366 45.156,79.173c7.065,-4.028 39.824,-22.711 39.824,-22.711c0.78,-0.445 1.632,-0.658 2.472,-0.658c1.738,0 3.427,0.906 4.35,2.524l6.912,12.116c0.433,0.761 0.655,1.615 0.655,2.478c0,0.442 -0.058,0.884 -0.178,1.318c-0.349,1.279 -1.192,2.368 -2.344,3.026l-57.329,32.696c-0.78,0.445 -1.631,0.658 -2.472,0.658c-1.738,0 -3.427,-0.906 -4.35,-2.524c0,0 -49.437,-86.68 -52.766,-92.517c1.315,3.285 4.164,10.41 4.164,10.41c0.24,0.598 0.36,1.228 0.36,1.858c0,0.672 -0.136,1.343 -0.406,1.971c-0.522,1.217 -1.507,2.18 -2.74,2.671c0,0 -18.414,7.365 -25.021,10.007c3.338,8.344 33.851,84.627 33.851,84.627c0.243,0.609 0.36,1.237 0.36,1.856c0,1.984 -1.19,3.861 -3.143,4.644l-14.624,5.851c-0.598,0.24 -1.228,0.36 -1.858,0.36c-0.672,0 -1.343,-0.136 -1.971,-0.407c-1.216,-0.521 -2.18,-1.506 -2.671,-2.736c0,0 -30.516,-76.286 -33.853,-84.628c-6.618,2.647 -25.16,10.064 -25.16,10.064c-0.597,0.24 -1.228,0.36 -1.858,0.36c-0.671,0 -1.343,-0.137 -1.97,-0.407c-0.797,-0.341 -1.485,-0.876 -2,-1.553c5.198,22.295 21.478,92.127 21.478,92.127c0.09,0.382 0.131,0.764 0.131,1.141c0,2.27 -1.556,4.328 -3.864,4.862l-18.698,4.361c-0.376,0.087 -0.758,0.131 -1.135,0.131c-1.539,0 -3.021,-0.712 -3.978,-1.97l-47.509,-62.397c-0.005,-0.005 -0.008,-0.013 -0.013,-0.019c-0.088,-0.117 -0.178,-0.235 -0.265,-0.352c1.356,5.823 15.873,68.105 15.873,68.105c0.09,0.382 0.131,0.764 0.131,1.141c0,2.27 -1.555,4.328 -3.864,4.863l-12.271,2.862c-0.377,0.087 -0.758,0.131 -1.138,0.131c-0.925,0 -1.839,-0.256 -2.639,-0.753ZM663.721,1455.06l-37.722,-9.292c-2.282,-0.562 -3.807,-2.603 -3.807,-4.849c0,-0.396 0.049,-0.799 0.147,-1.201l3.013,-12.233c0.316,-1.288 1.132,-2.396 2.268,-3.083c0.788,-0.475 1.683,-0.721 2.586,-0.721c0.399,0 0.8,0.047 1.196,0.145l37.722,9.291c2.282,0.563 3.807,2.604 3.807,4.85c0,0.395 -0.049,0.799 -0.147,1.2l-3.013,12.233c-0.316,1.288 -1.132,2.396 -2.268,3.084c-0.788,0.475 -1.683,0.72 -2.586,0.72c-0.399,0 -0.8,-0.046 -1.196,-0.144ZM480.625,1423.4l-15.292,-9.493c-1.473,-0.914 -2.363,-2.524 -2.363,-4.243c0,-0.11 0.003,-0.222 0.011,-0.333c0,0 3.072,-46.957 3.422,-52.317c-2.213,-1.375 -4.443,-2.758 -7.608,-4.723c-4.254,6.852 -23.154,37.297 -23.154,37.297c-0.701,1.127 -1.817,1.929 -3.111,2.232c-0.376,0.087 -0.758,0.131 -1.14,0.131c-0.926,0 -1.837,-0.257 -2.636,-0.75l-13.126,-8.151c-1.523,-0.947 -2.36,-2.582 -2.36,-4.255c0,-0.9 0.242,-1.809 0.75,-2.63l58.071,-93.543c0.702,-1.127 1.818,-1.929 3.111,-2.232c0.377,-0.087 0.762,-0.131 1.141,-0.131c0.925,0 1.836,0.256 2.633,0.75l28.802,17.882c7.941,4.931 13.907,10.555 17.727,16.719c3.375,5.444 5.086,11.27 5.086,17.317c0,6.135 -1.85,12.495 -5.212,17.912c-3.722,5.995 -8.202,10.435 -13.316,13.199c-4.315,2.331 -9.177,3.512 -14.449,3.512c-2.522,0 -4.956,-0.262 -7.242,-0.649c-0.388,9.586 -2.112,52.452 -2.112,52.452c-0.071,1.777 -1.084,3.384 -2.656,4.216c-0.734,0.391 -1.541,0.582 -2.344,0.582c-0.916,0 -1.828,-0.251 -2.633,-0.751ZM528.957,1448.65c-3.932,-1.719 -8.09,-4.369 -11.709,-7.464c-4.568,-3.902 -8.058,-8.268 -10.38,-12.97l0.016,0.036c-4.609,-9.163 -4.887,-16.108 -5.13,-22.234c-0.003,-0.068 -0.003,-0.134 -0.003,-0.199c0,-2.47 1.807,-4.585 4.268,-4.948l15.399,-2.273c0.243,-0.035 0.488,-0.054 0.731,-0.054c1.25,0 2.464,0.469 3.397,1.331c1.026,0.95 1.602,2.284 1.602,3.673c0,0.115 -0.002,0.23 -0.011,0.344c-0.057,0.824 -0.087,1.654 -0.087,2.459c0,4.45 0.884,8.549 2.552,11.851c2.046,4.049 5.361,7.098 9.85,9.06c2.222,0.971 4.62,1.487 6.937,1.487c3.684,0 8.634,-1.28 11.297,-7.379c0.636,-1.454 0.933,-2.756 0.933,-4.099c0,-3.32 -1.921,-7.141 -5.711,-11.357l-14.323,-15.917l0.024,0.027c-5.247,-5.744 -11.166,-14.964 -12.025,-23.617c-0.003,-0.008 -0.003,-0.019 -0.003,-0.028c-0.071,-0.755 -0.107,-1.541 -0.107,-2.341c0,-3.296 0.625,-8.655 3.605,-15.469c2.669,-6.102 7.005,-11.123 12.544,-14.52c5.259,-3.228 11.483,-4.931 17.999,-4.931c5.458,0 10.883,1.16 16.122,3.449c8.5,3.717 15.066,9.125 19.519,16.081c4.336,6.775 6.584,14.894 6.683,24.125c0,0.019 0,0.036 0,0.055c0,2.521 -1.878,4.652 -4.385,4.961l-14.886,1.844c-0.207,0.025 -0.415,0.038 -0.619,0.038c-1.168,0 -2.303,-0.409 -3.209,-1.167c-1.062,-0.893 -1.709,-2.189 -1.78,-3.575c-0.291,-5.69 -0.772,-9.889 -2.251,-13.237c-1.533,-3.469 -4.128,-5.854 -8.424,-7.729c-1.82,-0.796 -4.03,-1.255 -6.06,-1.255c-1.949,0 -3.643,0.396 -5.038,1.179c-1.555,0.871 -2.712,2.21 -3.539,4.101c-0.603,1.379 -0.898,2.713 -0.898,4.075c0,4.527 3.441,8.38 4.735,9.831l-0.019,-0.021l16.102,17.843c0.028,0.03 0.052,0.057 0.077,0.085c2.295,2.663 4.281,5.506 5.905,8.456c2.559,4.642 4.118,9.374 4.631,14.067c0.008,0.055 0.013,0.117 0.016,0.172l0.025,0.314c0.07,0.906 0.155,2.033 0.155,3.389c0,4.508 -1.012,9.019 -3.094,13.783c-4.721,10.803 -12.678,18.16 -23.009,21.276l0.043,-0.013c-3.643,1.135 -7.316,1.711 -10.918,1.711c-7.7,0 -13.627,-2.593 -17.549,-4.306ZM811.657,1500.7c-1.004,-0.867 -1.621,-2.098 -1.716,-3.421c0,0 -6.473,-90.034 -7.376,-102.614c-0.26,3.629 -0.519,7.275 -0.519,7.275c-0.095,1.324 -0.709,2.554 -1.713,3.422c-0.912,0.794 -2.077,1.225 -3.278,1.225c-0.117,0 -0.234,-0.005 -0.352,-0.013c0,0 -19.786,-1.411 -26.884,-1.916c-0.638,8.967 -6.481,90.923 -6.481,90.923c-0.095,1.324 -0.712,2.554 -1.713,3.425c-0.912,0.791 -2.08,1.222 -3.277,1.222c-0.118,0 -0.235,-0.005 -0.353,-0.013l-15.712,-1.122c-2.636,-0.188 -4.647,-2.385 -4.647,-4.983c0,-0.12 0.006,-0.24 0.014,-0.36c0,0 5.845,-81.959 6.483,-90.923c-7.111,-0.508 -27.031,-1.927 -27.031,-1.927c-2.636,-0.188 -4.647,-2.385 -4.647,-4.982c0,-0.12 0.005,-0.241 0.013,-0.361l0.991,-13.914c0.096,-1.323 0.71,-2.554 1.714,-3.422c0.911,-0.794 2.079,-1.225 3.277,-1.225c0.117,0 0.235,0.006 0.352,0.014l79.601,5.673c1.739,0.126 3.204,1.122 4.001,2.532c0.204,-0.499 0.491,-0.968 0.851,-1.383c0.868,-1.004 2.098,-1.621 3.422,-1.717l68.223,-4.903c0.12,-0.008 0.24,-0.014 0.36,-0.014c2.597,0 4.794,2.008 4.985,4.645l0.969,13.463c0.008,0.118 0.014,0.235 0.014,0.352c0,1.198 -0.432,2.366 -1.223,3.278c-0.868,1.004 -2.098,1.621 -3.422,1.716c0,0 -39.354,2.833 -47.527,3.419c0.415,5.78 1.16,16.108 1.574,21.891c7.573,-0.546 33.764,-2.429 33.764,-2.429c0.12,-0.008 0.24,-0.014 0.36,-0.014c2.598,0 4.794,2.009 4.985,4.642l1.002,13.914c0.008,0.117 0.013,0.235 0.013,0.352c0,1.201 -0.431,2.369 -1.222,3.28c-0.868,1.004 -2.098,1.621 -3.422,1.716c0,0 -25.907,1.864 -33.463,2.407c0.45,6.271 1.471,20.406 1.921,26.68c8.249,-0.593 50.071,-3.602 50.071,-3.602c0.117,-0.009 0.234,-0.014 0.352,-0.014c1.197,0 2.365,0.431 3.277,1.222c1.004,0.868 1.621,2.099 1.716,3.422l0.999,13.915c0.008,0.12 0.014,0.24 0.014,0.36c0,2.597 -2.009,4.794 -4.645,4.985l-71.066,5.111c-0.117,0.008 -0.234,0.014 -0.352,0.014c-1.198,0 -2.365,-0.431 -3.277,-1.223ZM390.761,1365.58l-54.339,-46.081c-1.165,-0.988 -1.765,-2.396 -1.765,-3.812c0,-1.144 0.39,-2.293 1.187,-3.234l71.207,-83.967c0.857,-1.013 2.083,-1.641 3.403,-1.75c0.137,-0.011 0.276,-0.016 0.412,-0.016c1.179,0 2.325,0.417 3.231,1.187l52.167,44.239c1.012,0.857 1.639,2.082 1.749,3.403c0.011,0.136 0.016,0.275 0.016,0.412c0,1.179 -0.417,2.325 -1.187,3.231l-8.732,10.296c-0.988,1.165 -2.396,1.765 -3.812,1.765c-1.144,0 -2.292,-0.39 -3.234,-1.187c0,0 -30.096,-25.522 -36.342,-30.819c-3.746,4.418 -10.448,12.323 -14.195,16.741c5.788,4.909 25.814,21.896 25.814,21.896c1.165,0.988 1.766,2.396 1.766,3.812c0,1.143 -0.39,2.292 -1.187,3.234l-9.022,10.637c-0.987,1.165 -2.395,1.765 -3.812,1.765c-1.143,0 -2.292,-0.39 -3.233,-1.187c0,0 -19.811,-16.801 -25.588,-21.699c-4.066,4.794 -13.235,15.606 -17.301,20.403c6.307,5.348 38.285,32.467 38.285,32.467c1.168,0.988 1.766,2.396 1.766,3.815c0,1.143 -0.388,2.292 -1.185,3.231l-9.021,10.639c-0.859,1.013 -2.082,1.64 -3.405,1.749c-0.137,0.011 -0.276,0.017 -0.412,0.017c-1.179,0 -2.325,-0.418 -3.231,-1.187ZM1230.94,1344.04c-1.326,-0.044 -2.581,-0.611 -3.487,-1.58l-75.241,-80.371c-0.903,-0.963 -1.348,-2.189 -1.348,-3.414c0,-1.334 0.53,-2.669 1.583,-3.654l14.233,-13.327c0.945,-0.884 2.17,-1.348 3.417,-1.348c0.647,0 1.301,0.125 1.921,0.382l71.707,29.85c0.035,0.014 0.076,0.033 0.12,0.057c-0.966,-1.023 -1.828,-1.942 -2.579,-2.745l-44.49,-47.521c-0.903,-0.964 -1.348,-2.189 -1.348,-3.414c0,-1.335 0.53,-2.669 1.583,-3.654l9.199,-8.612c0.925,-0.868 2.15,-1.348 3.416,-1.348c0.055,0 0.109,0 0.164,0.003c1.326,0.043 2.581,0.611 3.487,1.579l75.241,80.372c0.903,0.963 1.348,2.188 1.348,3.413c0,1.335 -0.529,2.669 -1.583,3.654l-14.015,13.123c-0.944,0.884 -2.169,1.348 -3.416,1.348c-0.652,0 -1.307,-0.126 -1.932,-0.388l-72.329,-30.295c-0.009,-0.002 -0.014,-0.005 -0.022,-0.008c-0.134,-0.057 -0.268,-0.117 -0.404,-0.174c4.077,4.355 47.789,51.047 47.789,51.047c0.903,0.963 1.348,2.188 1.348,3.414c0,1.334 -0.529,2.668 -1.583,3.654l-9.198,8.612c-0.925,0.867 -2.151,1.348 -3.417,1.348c-0.054,0 -0.109,0 -0.164,-0.003ZM493.775,1344.23c3.801,0 6.656,-1.746 8.981,-5.49c1.591,-2.563 2.398,-4.972 2.398,-7.166c0,-2.32 -0.887,-4.593 -2.707,-6.945c-2.065,-2.669 -5.321,-5.395 -9.679,-8.099c0,0 -4.811,-2.985 -8.626,-5.354c-3.312,5.335 -10.713,17.254 -13.984,22.526c4.991,3.144 12.295,7.548 16.566,9.098l-0.063,-0.025c1.793,0.625 4.484,1.455 7.114,1.455ZM1175.17,1380.64l-5.744,-7.878c-0.628,-0.862 -0.958,-1.893 -0.958,-2.947c0,-0.256 0.019,-0.518 0.06,-0.775c0.204,-1.309 0.922,-2.483 1.995,-3.266c0,0 1.749,-1.272 3.476,-2.532c-4.947,-6.787 -42.351,-58.099 -47.303,-64.891c-1.728,1.258 -3.474,2.532 -3.474,2.532c-0.89,0.647 -1.921,0.961 -2.942,0.961c-1.544,0 -3.067,-0.712 -4.046,-2.055l-5.922,-8.121c-0.627,-0.862 -0.958,-1.894 -0.958,-2.947c0,-0.256 0.02,-0.518 0.06,-0.775c0.205,-1.31 0.923,-2.483 1.995,-3.266l28,-20.411c0.887,-0.647 1.918,-0.961 2.939,-0.961c1.544,0 3.067,0.712 4.047,2.055l5.921,8.121c0.628,0.862 0.958,1.893 0.958,2.947c0,0.256 -0.019,0.518 -0.06,0.775c-0.205,1.309 -0.922,2.483 -1.995,3.266c0,0 -1.921,1.4 -3.839,2.797c4.947,6.787 42.353,58.101 47.303,64.891c1.919,-1.4 3.843,-2.8 3.843,-2.8c0.889,-0.647 1.921,-0.961 2.941,-0.961c1.545,0 3.065,0.715 4.044,2.058l5.744,7.881c0.647,0.889 0.961,1.921 0.961,2.941c0,1.545 -0.715,3.065 -2.058,4.044l-28.002,20.412c-0.887,0.646 -1.919,0.96 -2.939,0.96c-1.545,0 -3.068,-0.712 -4.047,-2.055ZM281.855,1261.7l-10.476,-11.764c-0.819,-0.917 -1.266,-2.104 -1.266,-3.326c0,-0.096 0.002,-0.194 0.008,-0.289c0.076,-1.324 0.677,-2.563 1.667,-3.447l82.232,-73.213c0.953,-0.846 2.14,-1.264 3.321,-1.264c1.378,0 2.751,0.565 3.739,1.676l45.085,50.638c0.816,0.917 1.263,2.101 1.263,3.324c0,0.095 -0.003,0.193 -0.008,0.289c-0.076,1.323 -0.677,2.562 -1.667,3.446l-10.419,9.275c-0.952,0.846 -2.139,1.264 -3.321,1.264c-1.378,0 -2.748,-0.565 -3.736,-1.676c0,0 -25.855,-29.039 -31.288,-35.141c-4.439,3.954 -12.962,11.543 -17.404,15.497c4.991,5.607 21.615,24.275 21.615,24.275c0.816,0.917 1.263,2.101 1.263,3.324c0,0.095 -0.003,0.194 -0.008,0.289c-0.077,1.323 -0.677,2.562 -1.667,3.446l-10.419,9.276c-0.952,0.846 -2.139,1.263 -3.321,1.263c-1.378,0 -2.748,-0.565 -3.735,-1.675c0,0 -16.616,-18.663 -21.613,-24.273c-6.019,5.359 -32.786,29.193 -32.786,29.193c-0.952,0.848 -2.139,1.266 -3.324,1.266c-1.375,0 -2.747,-0.565 -3.735,-1.673ZM1278.42,1251.61c-9.119,-4.377 -16.452,-9.731 -20.007,-12.53c-8.004,-6.298 -22.278,-19.116 -27.94,-34.173l0.01,0.03c-1.978,-5.157 -2.979,-10.394 -2.979,-15.562c0,-4.819 0.857,-9.526 2.551,-13.991c1.64,-4.319 3.649,-7.343 5.046,-9.117c3.986,-5.064 8.74,-8.939 14.127,-11.512c4.974,-2.377 10.331,-3.581 15.925,-3.581c5.946,0 11.974,1.403 17.434,4.058c1.195,0.584 2.112,1.621 2.543,2.879c0.18,0.527 0.271,1.07 0.271,1.615c0,0.762 -0.175,1.523 -0.522,2.219l-6.456,13.052c-0.862,1.749 -2.625,2.783 -4.478,2.783c-0.562,0 -1.135,-0.095 -1.692,-0.295c-2.153,-0.772 -5.755,-2.065 -9.395,-2.065c-3.839,0 -6.727,1.397 -9.087,4.393c-0.982,1.247 -2.63,3.943 -2.63,7.952c0,4.295 1.844,9.054 5.476,14.143c0.006,0.005 0.008,0.014 0.014,0.019c5.345,7.559 16.695,16.504 16.809,16.591c10.277,8.091 18.875,12.694 27.064,14.493l-0.011,-0.003c1.561,0.341 3.07,0.513 4.481,0.513c4.522,0 8.189,-1.752 10.907,-5.204c2.849,-3.618 3.446,-7.408 3.446,-9.952c0,-0.925 -0.084,-1.618 -0.139,-1.981c-1.001,-5.135 -3.078,-8.093 -6.115,-11.019c-3.7,4.702 -9.894,12.572 -9.894,12.572c-0.822,1.042 -2.022,1.716 -3.338,1.872c-0.199,0.025 -0.398,0.035 -0.595,0.035c-1.116,0 -2.204,-0.373 -3.089,-1.069l-10.961,-8.629c-1.253,-0.988 -1.908,-2.453 -1.908,-3.935c0,-1.08 0.35,-2.169 1.07,-3.086l22.174,-28.172c0.988,-1.252 2.454,-1.907 3.935,-1.907c1.081,0 2.17,0.349 3.086,1.069l41.609,32.749c1.042,0.821 1.716,2.022 1.872,3.337c0.025,0.199 0.035,0.398 0.035,0.595c0,1.116 -0.373,2.205 -1.069,3.089l-3.34,4.243c-0.958,1.22 -2.415,1.91 -3.93,1.91c-0.335,0 -0.671,-0.035 -1.007,-0.104c0,0 -6.036,-1.244 -6.996,-1.44c0.002,0.117 0.008,0.229 0.008,0.341c0.003,0.073 0.006,0.166 0.006,0.166c0.029,0.737 0.062,1.657 0.062,2.74c0,8.888 -2.592,16.686 -7.703,23.181c-1.553,1.976 -4.154,5.277 -8.604,8.167c-5.338,3.46 -11.761,5.259 -19.099,5.338l0.055,0l-0.852,0.008c-7.938,0 -16.746,-2.295 -26.18,-6.825ZM867.908,1203.3c-0.01,0.002 -0.027,0.008 -0.038,0.011c0.011,-0.003 0.025,-0.009 0.038,-0.011ZM928.264,1068.32c5.722,0.723 19.235,2.431 19.235,2.431l14.501,-15.248l28.499,1.501c0,0 2.161,2.619 0.218,5.386c-2.172,3.092 -8.467,6.361 -8.467,6.361l-16.749,-0.499c0,0 -99.858,122.214 -101.001,122.501c-1.143,0.286 -31.25,-19.178 -31.25,-20.75c0,-1.572 87.755,-96.981 90.71,-100.204c0.909,-0.42 1.144,-1.877 4.304,-1.479ZM290.961,1192.92c-1.302,-0.251 -2.451,-1.009 -3.193,-2.109c0,0 -13.996,-20.703 -18.204,-26.925c-6.674,4.513 -36.369,24.589 -36.369,24.589c-0.857,0.581 -1.831,0.86 -2.794,0.86c-1.605,0 -3.182,-0.773 -4.148,-2.203l-8.822,-13.049c-0.581,-0.856 -0.86,-1.831 -0.86,-2.794c0,-1.604 0.772,-3.182 2.202,-4.148l91.213,-61.668c0.832,-0.562 1.812,-0.856 2.802,-0.856c0.317,0 0.633,0.03 0.947,0.09c1.302,0.251 2.451,1.009 3.193,2.109l37.974,56.169c0.581,0.857 0.859,1.831 0.859,2.795c0,1.604 -0.772,3.181 -2.202,4.147l-11.556,7.816c-0.833,0.562 -1.807,0.857 -2.8,0.857c-0.317,0 -0.633,-0.031 -0.95,-0.091c-1.301,-0.251 -2.45,-1.009 -3.192,-2.109c0,0 -21.776,-32.21 -26.352,-38.981c-4.926,3.329 -14.378,9.72 -19.304,13.052c4.205,6.222 18.204,26.925 18.204,26.925c0.581,0.857 0.86,1.831 0.86,2.794c0,1.605 -0.773,3.182 -2.203,4.148l-11.556,7.815c-0.832,0.563 -1.806,0.857 -2.8,0.857c-0.316,0 -0.633,-0.03 -0.949,-0.09ZM646.625,1186.29c0.945,-0.9 1.75,-1.94 2.385,-3.078c-0.319,-0.076 -0.635,-0.169 -0.949,-0.27c-0.74,1.725 -1.367,3.187 -1.436,3.348ZM662.952,1167.24c-6.609,2.614 -10.869,3.346 -10.869,3.346c0,0 -24.731,-15.483 -48.562,-32.023c-19.947,-13.843 -37.272,-27.56 -37.272,-27.56c0,0 2.06,-3.002 5.152,-6.031c3.157,-3.094 7.349,-6.222 7.349,-6.222l93.106,62.667c0,0 -3.834,3.82 -8.904,5.823ZM206.024,1151.26c-1.266,-0.393 -2.324,-1.272 -2.944,-2.442l-16.179,-30.642c-0.393,-0.745 -0.581,-1.542 -0.581,-2.33c0,-1.796 0.971,-3.532 2.666,-4.427l8.623,-4.554c0.728,-0.385 1.531,-0.578 2.339,-0.578c0.493,0 0.99,0.073 1.473,0.221c1.266,0.393 2.328,1.271 2.944,2.445c0,0 1.01,1.91 2.009,3.801c7.43,-3.924 63.589,-33.575 71.011,-37.494c-0.999,-1.891 -2.008,-3.804 -2.008,-3.804c-0.393,-0.745 -0.582,-1.544 -0.582,-2.33c0,-1.796 0.972,-3.528 2.669,-4.423l8.885,-4.691c0.745,-0.393 1.545,-0.581 2.33,-0.581c1.793,0 3.529,0.971 4.424,2.666l16.179,30.641c0.385,0.729 0.578,1.531 0.578,2.339c0,0.494 -0.073,0.99 -0.221,1.473c-0.393,1.266 -1.271,2.325 -2.445,2.945l-8.885,4.691c-0.745,0.392 -1.541,0.581 -2.33,0.581c-1.793,0 -3.526,-0.969 -4.423,-2.666c0,0 -1.111,-2.101 -2.219,-4.2c-7.428,3.921 -63.583,33.572 -71.011,37.494c1.108,2.098 2.218,4.197 2.218,4.197c0.385,0.728 0.579,1.528 0.579,2.335c0,0.494 -0.074,0.994 -0.221,1.474c-0.393,1.269 -1.272,2.327 -2.442,2.947l-8.623,4.554c-0.729,0.385 -1.531,0.579 -2.339,0.579c-0.494,0 -0.991,-0.074 -1.474,-0.221ZM710.482,1145.76c-0.805,0.862 -5.982,0.952 -5.982,0.952l-96.5,-65.966c0,0 -0.803,-1.312 -0.612,-2.592c0.183,-1.217 1.362,-2.407 1.362,-2.407l101.107,67.071c0,0 1.561,1.94 0.625,2.942ZM1366.76,1185.34l-95.437,-54.903c-1.148,-0.661 -1.989,-1.752 -2.333,-3.032c-0.117,-0.428 -0.174,-0.868 -0.174,-1.304c0,-0.868 0.226,-1.727 0.668,-2.492l34.11,-59.288c0.661,-1.149 1.752,-1.989 3.032,-2.333c0.428,-0.117 0.868,-0.175 1.304,-0.175c0.868,0 1.728,0.227 2.492,0.669l11.701,6.732c1.607,0.922 2.507,2.609 2.507,4.338c0,0.846 -0.215,1.703 -0.668,2.489c0,0 -19.675,34.2 -23.76,41.3c5.021,2.89 14.002,8.056 19.025,10.946c3.785,-6.58 16.881,-29.34 16.881,-29.34c0.922,-1.608 2.608,-2.508 4.338,-2.508c0.846,0 1.703,0.215 2.489,0.669l12.091,6.955c1.608,0.923 2.508,2.606 2.508,4.336c0,0.846 -0.216,1.706 -0.668,2.491c0,0 -12.951,22.516 -16.728,29.081c5.449,3.136 17.735,10.203 23.187,13.339c4.123,-7.169 25.033,-43.514 25.033,-43.514c0.923,-1.607 2.609,-2.507 4.339,-2.507c0.846,0 1.703,0.215 2.489,0.668l12.091,6.956c1.149,0.66 1.989,1.752 2.333,3.031c0.118,0.429 0.175,0.865 0.175,1.302c0,0.868 -0.227,1.727 -0.669,2.494l-35.529,61.761c-0.66,1.149 -1.751,1.989 -3.031,2.333c-0.429,0.117 -0.865,0.175 -1.302,0.175c-0.868,0 -1.727,-0.227 -2.494,-0.669ZM1415.34,1097.64l-102.592,-39.974c-1.976,-0.769 -3.187,-2.658 -3.187,-4.658c0,-0.603 0.112,-1.217 0.344,-1.815l7.078,-18.168c0.712,-1.831 2.434,-3.075 4.396,-3.179l77.572,-4.069c0.016,0 0.032,0 0.051,0c0.028,0 0.06,0 0.093,0.003c-1.318,-0.505 -2.497,-0.963 -3.523,-1.364l-60.661,-23.637c-1.236,-0.48 -2.229,-1.433 -2.764,-2.647c-0.281,-0.638 -0.42,-1.326 -0.42,-2.011c0,-0.617 0.112,-1.231 0.341,-1.815l4.576,-11.739c0.77,-1.976 2.658,-3.187 4.658,-3.187c0.603,0 1.217,0.112 1.815,0.344l102.591,39.971c1.236,0.48 2.23,1.433 2.765,2.647c0.281,0.638 0.42,1.323 0.42,2.008c0,0.617 -0.112,1.234 -0.341,1.818l-6.972,17.892c-0.715,1.837 -2.44,3.081 -4.407,3.179l-78.325,3.932c-0.008,0 -0.016,0 -0.021,0c-0.148,0.006 -0.298,0.014 -0.448,0.02c5.551,2.161 65.163,25.391 65.163,25.391c1.976,0.77 3.188,2.658 3.188,4.658c0,0.603 -0.112,1.217 -0.344,1.815l-4.574,11.742c-0.48,1.236 -1.432,2.229 -2.646,2.764c-0.639,0.281 -1.324,0.42 -2.009,0.42c-0.616,0 -1.233,-0.112 -1.817,-0.341ZM690.155,1155.99c-2.434,2.418 -9.633,3.013 -9.633,3.013l-93.523,-63.75c0,0 -1.463,0.202 0.578,-1.959c2.205,-2.33 7.922,-7.04 7.922,-7.04l99,64.083c0,0 -1.88,3.208 -4.344,5.653ZM798,328.999c-261.784,0 -473.999,212.218 -473.999,474.002c0,105.857 34.702,203.605 93.349,282.497l0.254,-2.057l16.394,-82.439l16.002,-93c0,0 0.625,-7.223 1.176,-14.253c0.434,-5.542 0.824,-11.248 0.824,-11.248c0,0 -0.052,-2.914 0.701,-5.809c0.745,-2.855 2.298,-5.693 2.298,-5.693c0,0 1.681,-3.492 4.363,-7.528c2.557,-3.845 6.083,-8.173 7.663,-10.664c0.758,-1.196 0.974,-2.306 0.974,-2.306c0,0 0.24,-1.736 -0.142,-3.387c-0.368,-1.599 -1.356,-3.113 -1.356,-3.113c0,0 -4.418,-3.643 -7.564,-7.073c-2.167,-2.366 -3.439,-4.929 -3.439,-4.929l-15.499,-17.499l-13,-15l-13,-16.499l-17.5,-20.501c0,0 -7.523,-5.995 -3.992,-10.956c5.081,-7.139 13.491,-18.043 13.491,-18.043l14.002,-19.5l17.499,-22.501c0,0 7.379,-10.252 16.531,-19.405c8.842,-8.841 19.47,-16.594 19.47,-16.594c0,0 6.399,-3.732 14.984,-6.358c7.297,-2.234 16.984,-3.424 16.984,-3.424c0,0 3.376,-0.631 5.561,-3.152c2.47,-2.849 3.782,-7.63 3.782,-7.63c0,0 -6.98,-8.699 -8.612,-17.737c-1.301,-7.201 -1.2,-13.6 -1.2,-13.6c0,0 2.169,-37.723 42.004,-39.516c45.936,1.111 40.997,43.041 40.997,43.041l0,6.375c0,0 -0.87,5.305 -2.898,9.488c-7.646,15.77 -26.936,23.945 0.017,25.604c32.527,2.006 136.382,8.408 136.382,8.408l80.998,7.002l2.999,-5.501l68.501,5.501c0,0 7.99,1.266 7.668,6.915c-0.243,4.24 -7.668,4.084 -7.668,4.084l-45.999,-2.917l-14.834,14.25l-283.333,4.415l-32.235,0.953c0,0 -3.978,-0.273 -8.686,3.25c-2.777,2.079 -3.375,5.302 -3.462,7.258c-0.099,1.258 0.693,1.64 2.36,1.64c8.795,0 39.439,0.213 39.439,0.213l50.75,-0.063l29.501,0c0,0 6.849,-0.406 6.486,2.814c0.066,4.846 -6.238,6.248 -6.238,6.248l-124.25,2.064l-8.5,-0.126c0,0 -4.156,1.989 -4.958,4.887c-0.726,2.62 3.084,5.114 3.084,5.114l130.376,-3.002c0,0 4.524,1.905 3.834,5.068c-0.205,0.938 -0.974,2.016 -1.913,3.042c-1.919,2.088 -4.546,3.954 -4.546,3.954c0,0 -121.049,2.655 -132.939,2.917c-1.187,-0.161 -0.979,0.167 -1.558,-1.167c-1.293,-2.568 -2.281,-6.323 -4.481,-8.08c-3.858,-2.552 -5.444,-2.132 -9.316,1.691c-5.935,5.851 -15.082,14.075 -15.082,14.075c0,0 -4.077,3.428 -2.103,9.368c7.599,12.367 18.391,28.292 23.977,36.386c1.277,2.082 13.115,14.345 10.785,-13.188c-0.254,-4.707 11.842,-4.063 11.842,-4.063l108.936,-3.002c0,0 -0.444,7.073 -4.595,21.759c-2.851,11.906 -9.341,23.241 -9.341,23.241l-2,30.5l47.061,180.75c0,0 -0.016,2.284 -0.079,3.795c-20.848,23.498 -39.587,36.719 -43.178,39.289c-3.086,2.216 -3.555,-1.209 -5.528,-3.967c-8.178,-16.545 -40.277,-108.865 -40.277,-108.865l0.125,-8.438l4.877,-15.565c0,0 -1.324,-4.063 -3.578,-4.565c-2.246,-0.499 -4.549,3.193 -4.549,3.193l-49.123,165.124c0,0 2.262,4.186 4.958,3.842c16.569,-1.752 15.81,-5.766 32.568,-8.189c28.232,11.387 120.847,79.16 120.847,79.16c0,0 3.337,2.21 2.95,4.003c-0.344,1.596 -4.418,2.797 -4.41,2.81c0.194,0.426 -43.914,12.124 -43.914,12.124c0,0 -5.125,1.313 -10.187,0.936c-1.692,-0.125 -53.771,-1.088 -53.771,-1.088l-7.869,-0.511c77.745,55.801 173.073,88.661 276.077,88.661c261.783,0 473.998,-212.215 473.998,-473.998c0,-261.784 -212.215,-474.002 -473.998,-474.002ZM523.14,1078.85c7.253,2.926 17.999,8.885 32.849,18.223c1.029,0.647 2.076,1.31 3.143,1.99c0.917,-1.056 1.984,-2.214 3.171,-3.376c3.673,-3.602 8.173,-6.98 8.672,-7.354c1.752,-1.304 3.752,-2.12 5.815,-2.434c0.535,-0.68 1.016,-1.19 1.324,-1.517c0.005,-0.008 0.013,-0.014 0.019,-0.022c0.805,-0.849 1.869,-1.859 2.991,-2.876c-1.321,0.374 -2.674,0.562 -4.05,0.562c-4.379,0 -8.404,-1.913 -11.335,-5.384c-1.239,-1.468 -2.033,-2.917 -2.614,-3.973c-0.153,-0.281 -0.363,-0.666 -0.451,-0.797l0.03,0.041c-0.365,-0.527 -0.799,-1.228 -1.083,-1.804c-2.079,-4.208 -5.43,-12.432 -10.247,-25.146c-3.705,-9.782 -8.26,-22.182 -13.537,-36.849c-3.471,-9.646 -6.803,-19.036 -9.594,-26.933c-12.37,41.578 -24.903,83.711 -30.233,101.628c4.05,-1.556 9.134,-3.449 18.406,-4.789c0.617,-0.09 1.239,-0.134 1.858,-0.134c1.662,0 3.313,0.319 4.866,0.944ZM177.634,1075.81c0.003,-0.002 0.003,-0.005 0.003,-0.008c0,0.003 -0.003,0.006 -0.003,0.008ZM593.818,1073.36c0.488,-0.063 0.98,-0.098 1.471,-0.107c0.196,-0.543 0.412,-1.061 0.647,-1.552c-0.707,0.559 -1.411,1.11 -2.118,1.659ZM606.362,1062.97c0.789,-0.147 1.591,-0.224 2.393,-0.224c0.06,0 0.123,0.003 0.183,0.003c0.453,-1.307 1.054,-2.53 1.747,-3.67c-1.436,1.318 -2.876,2.617 -4.323,3.891ZM798,1264c31.285,0 62.549,-3.151 92.92,-9.365c29.594,-6.055 58.702,-15.093 86.516,-26.857c27.316,-11.553 53.659,-25.852 78.303,-42.5c24.414,-16.493 47.372,-35.437 68.236,-56.301c20.864,-20.864 39.808,-43.821 56.3,-68.236c16.649,-24.643 30.948,-50.987 42.501,-78.302c11.764,-27.815 20.802,-56.923 26.857,-86.517c6.213,-30.371 9.365,-61.635 9.365,-92.92c0,-31.286 -3.152,-62.55 -9.365,-92.921c-6.055,-29.594 -15.093,-58.702 -26.857,-86.519c-11.553,-27.313 -25.852,-53.656 -42.501,-78.303c-16.492,-24.411 -35.436,-47.371 -56.3,-68.235c-20.864,-20.865 -43.822,-39.805 -68.236,-56.298c-24.644,-16.651 -50.987,-30.95 -78.303,-42.504c-27.814,-11.764 -56.922,-20.799 -86.516,-26.857c-30.371,-6.213 -61.635,-9.365 -92.92,-9.365c-31.286,0 -62.55,3.152 -92.921,9.365c-29.594,6.058 -58.702,15.093 -86.516,26.857c-27.316,11.554 -53.659,25.853 -78.303,42.504c-24.414,16.493 -47.372,35.433 -68.236,56.298c-20.864,20.864 -39.808,43.824 -56.3,68.235c-16.649,24.647 -30.948,50.99 -42.501,78.303c-11.764,27.817 -20.802,56.925 -26.857,86.519c-6.213,30.371 -9.365,61.635 -9.365,92.921c0,50.39 8.074,99.917 24.002,147.212c12.171,36.14 28.756,70.518 49.449,102.543c4.843,-24.363 10.74,-54.011 10.77,-54.17c0.071,-0.414 15.683,-91.149 15.871,-92.238c0.153,-1.787 0.666,-7.802 1.124,-13.614c0.358,-4.565 0.69,-9.302 0.786,-10.705c0.019,-1.599 0.183,-5.018 1.119,-8.615c0.966,-3.711 2.636,-7.07 3.277,-8.29c0.499,-1.012 2.358,-4.666 5.136,-8.849c1.511,-2.273 3.219,-4.56 4.723,-6.577c0.011,-0.013 0.019,-0.024 0.03,-0.038c-1.291,-1.214 -2.674,-2.576 -3.932,-3.946c-0.003,-0.002 -0.003,-0.005 -0.006,-0.005c-2.073,-2.265 -3.599,-4.587 -4.521,-6.151c-1.659,-1.872 -14.561,-16.438 -14.561,-16.438c-0.033,-0.036 -0.063,-0.071 -0.093,-0.107l-13,-15c-0.133,-0.152 -0.262,-0.308 -0.387,-0.466c0,0 -12.621,-16.015 -12.872,-16.335c-0.371,-0.433 -15.524,-18.19 -16.676,-19.538c-0.862,-0.778 -2.049,-1.94 -3.247,-3.394c-3.553,-4.317 -5.43,-9.104 -5.43,-13.844c0,-3.738 1.157,-7.343 3.348,-10.426c4.847,-6.806 12.414,-16.657 13.636,-18.245c0.216,-0.3 13.892,-19.347 13.892,-19.347c0.098,-0.134 0.197,-0.267 0.298,-0.398c0,0 17.134,-22.03 17.377,-22.344c1.217,-1.67 8.598,-11.646 17.723,-20.774c9.447,-9.447 20.534,-17.563 21.003,-17.904c0.358,-0.259 0.726,-0.502 1.108,-0.726c0.789,-0.461 7.988,-4.578 17.735,-7.561c4.702,-1.441 10.004,-2.472 13.859,-3.111c-2.123,-3.989 -4.199,-8.901 -5.135,-14.091c-1.31,-7.24 -1.411,-13.753 -1.411,-15.576l0.005,-0.641c0.003,-0.208 0.009,-0.232 0.019,-0.44c0.074,-1.277 0.915,-12.828 7.758,-24.791c4.238,-7.411 9.873,-13.445 16.753,-17.933c8.391,-5.477 18.449,-8.517 29.888,-9.03c0.205,-0.008 0.409,-0.014 0.614,-0.014c0.095,0 0.188,0 0.284,0.003c10.784,0.262 20.245,2.497 28.123,6.642c7.1,3.738 12.888,8.983 17.202,15.587c3.307,5.065 5.695,10.863 7.097,17.227c1.171,5.324 1.417,10.063 1.417,13.101c0,1.809 -0.082,3.211 -0.156,4.093c0,0.998 0,5.763 0,5.763c0,0.704 -0.057,1.408 -0.172,2.104c-0.196,1.198 -1.312,7.455 -4.027,13.054c-1.299,2.677 -2.814,5.133 -4.364,7.36c11.821,0.729 129.863,8.006 129.863,8.006c0.107,0.006 0.213,0.014 0.319,0.025c0,0 59.466,5.141 72.761,6.289c2.453,-3.039 6.17,-4.838 10.118,-4.838c0.347,0 0.691,0.014 1.04,0.041l68.501,5.502c0.333,0.027 0.665,0.068 0.996,0.12c0.925,0.147 4.216,0.761 7.692,2.529c2.707,1.376 4.983,3.163 6.762,5.308c2.737,3.31 4.186,7.316 4.186,11.586l-0.025,0.964c0,0.035 0,0.051 0,0.057c0,0.008 -0.002,0.024 -0.005,0.054c-0.251,4.402 -2.235,8.435 -5.589,11.358c-1.983,1.732 -4.401,3.034 -7.184,3.872c-3.218,0.966 -6.252,1.11 -7.775,1.11l-0.098,0c-0.276,0 -0.548,-0.008 -0.824,-0.027c0,0 -31.531,-1.997 -40.291,-2.554c-4.297,4.129 -10.713,10.29 -10.713,10.29c-2.368,2.276 -5.515,3.572 -8.803,3.621c0,0 -103.091,1.608 -187.017,2.915c0.425,1.389 0.649,2.843 0.649,4.325c0,0 -0.011,0.188 -0.014,0.264c0,0.022 0,0.052 0,0.052c0,5.772 -2.649,10.978 -7.348,14.607c0.507,1.575 0.767,3.226 0.767,4.921c0,1.154 -0.126,2.311 -0.374,3.438l0.005,-0.017c-0.685,3.144 -2.33,6.102 -5.023,9.049c-0.006,0.006 -0.014,0.014 -0.02,0.022c-1.072,1.168 -2.232,2.246 -3.28,3.146c0.519,1.425 0.786,2.928 0.786,4.448c0,1.217 -0.172,2.442 -0.521,3.64l-3.501,11.999c-0.772,2.65 -2.363,4.974 -4.541,6.653c0,0.068 0,0.139 0,0.207c0,0.27 -0.008,0.543 -0.024,0.816c-0.055,0.859 -0.655,8.819 -4.991,24.226c-2.393,9.84 -6.809,19.126 -9.131,23.618c-0.281,4.278 -1.465,22.332 -1.681,25.601c1.037,3.982 46.532,178.714 46.532,178.714c0.278,1.07 0.42,2.169 0.42,3.275c0,0.029 0,0.062 0,0.092c-0.003,0.257 -0.019,2.557 -0.09,4.244c-0.126,2.99 -1.277,5.847 -3.264,8.088c-2.655,2.99 -5.365,5.927 -8.121,8.792c9.401,-7.343 22.033,-16.084 27.597,-19.481c3.069,-2.399 7.154,-3.76 11.66,-3.812c0.041,0 0.084,0 0.125,0c0.306,0 0.609,0.008 0.914,0.03c6.978,0.478 22.879,1.493 35.614,1.809c-0.764,-2.338 -1.455,-4.833 -1.949,-7.362c-0.002,-0.003 -0.002,-0.008 -0.002,-0.011c-0.699,-3.578 -1.051,-7.431 -1.051,-11.455c0,-3.889 0.336,-7.027 0.535,-8.553c0.156,-3.421 1.089,-14.397 6.726,-25.664c4.055,-8.099 9.657,-14.634 16.657,-19.423c8.574,-5.865 18.973,-8.912 30.914,-9.068c0.942,-0.03 1.905,-0.047 2.866,-0.047c12.999,0 24.351,2.934 33.741,8.716c7.764,4.781 14.037,11.396 18.646,19.661c7.171,12.86 7.89,25.466 7.963,27.553l0.005,0.169c0,0 0,0.005 0,0.022l0.011,1.288c0,2.196 -0.079,6.628 -0.601,11.63c-0.447,4.303 -1.113,8.066 -2.016,11.362c74.932,2.222 338.79,13.636 341.549,13.754c0.36,0.016 0.717,0.046 1.075,0.092c0.879,0.112 3.192,0.486 5.716,1.561c2.23,0.95 4.159,2.243 5.734,3.842c2.821,2.863 4.407,6.623 4.464,10.585c0.003,0.066 0.003,0.131 0.003,0.197l0,0.049c0,3.572 -1.154,6.972 -3.338,9.832c-1.378,1.809 -3.129,3.348 -5.209,4.573c-2.535,1.496 -4.934,2.145 -5.847,2.355c-0.956,0.221 -1.93,0.33 -2.909,0.33c-0.022,0 -0.246,-0.002 -0.268,-0.002c-16.441,-0.339 -134.395,-2.707 -144.334,-2.707c0,0 -0.035,0 -0.052,0c-0.221,0.011 -0.444,0.016 -0.668,0.016c-1.774,0 -3.466,-0.355 -5.007,-0.999c-0.423,0.887 -0.925,1.744 -1.501,2.563l0.005,-0.009c-1.88,2.677 -4.688,5.215 -8.582,7.756c-2.319,1.511 -4.311,2.554 -4.53,2.668c-1.852,0.961 -3.91,1.463 -5.995,1.463c-0.128,0 -0.256,-0.003 -0.384,-0.005c0,0 -5.461,-0.164 -10.348,-0.309c-8.096,9.903 -27.121,33.158 -46.037,56.205c-14.588,17.775 -26.265,31.954 -34.702,42.141c-5.027,6.069 -8.951,10.778 -11.669,14.001c-1.514,1.798 -2.655,3.136 -3.484,4.088c-0.502,0.576 -0.887,1.004 -1.206,1.348c-0.737,0.797 -2.601,2.802 -5.81,3.867c-0.011,0.002 -4.137,0.668 -4.137,0.668c-4.022,0 -6.827,-1.596 -12.285,-4.914c-3.094,-1.881 -7.117,-4.435 -11.038,-7.008c-4.21,-2.761 -8.055,-5.381 -10.831,-7.376c-0.583,-0.42 -1.124,-0.816 -1.623,-1.187c-5.771,5.802 -10.326,10.001 -13.892,12.624c-3.922,3.037 -7.837,4.516 -11.961,4.516c-4.047,0 -7.043,-1.496 -8.631,-2.462c-7.177,-3.561 -19.636,-11.706 -36.645,-22.821c-6.437,-4.205 -13.092,-8.554 -20.225,-13.158c-5.016,-3.236 -10.173,-6.584 -15.399,-9.993c-0.535,0.945 -1.184,1.831 -1.935,2.639c-0.008,0.008 -0.013,0.014 -0.021,0.022c-3.414,3.659 -7.772,4.516 -11.584,4.871c-1.796,0.169 -3.376,0.202 -3.673,0.207c-0.074,0 -0.15,0.003 -0.224,0.003c-0.199,0 -0.401,-0.005 -0.6,-0.014c-1.13,1.608 -2.71,3.649 -4.59,5.515c-2.841,2.822 -6.822,4.751 -12.162,5.895c-2.784,0.597 -5.117,0.81 -5.559,0.845c-0.357,0.03 -0.715,0.044 -1.07,0.044c-0.313,0 -0.627,-0.011 -0.938,-0.033c-2.183,1.913 -6.435,5.221 -11.857,7.363c-7.635,3.02 -12.871,3.967 -13.445,4.066c-0.731,0.125 -1.468,0.188 -2.202,0.188c-0.272,0 -0.545,-0.011 -0.818,-0.028c-1.299,1.414 -3.029,2.778 -5.33,3.946c-1.017,0.519 -2.109,0.985 -3.312,1.416c-0.145,0.055 -1.196,0.459 -1.196,0.459c-0.485,0.169 -1.08,0.36 -1.877,0.6c-1.236,0.377 -2.944,0.871 -5.223,1.509c-3.684,1.037 -8.806,2.445 -15.221,4.181c-10.885,2.944 -21.909,5.869 -22.021,5.899c-0.036,0.009 -0.071,0.019 -0.107,0.028c-0.919,0.234 -5.799,1.411 -11.515,1.411c-0.893,0 -1.788,-0.033 -2.669,-0.093c-1.116,-0.047 -6.961,-0.172 -14.85,-0.331c27.446,15.841 56.431,28.789 86.59,38.657c45.799,14.985 93.676,22.64 142.32,22.759l1.149,0.001ZM1007.86,1055.31c-0.016,-0.133 -1.421,-5.216 -1.851,-5.374c-0.347,-0.125 -50.008,-0.682 -50.008,-0.682l-3.749,4.503l-142.001,-4.001l-0.499,4.249l134,3.002l-0.251,5.997l-135.25,-2.747l0,4.999l43.499,2.248l-50.499,55.002l3.125,6.751l60.375,-62.252l47.126,1.375c0,0 3.302,2.598 0.946,5.215c-7.831,8.699 -27.618,31.056 -48.406,52.944c-23.833,25.097 -47.565,51.781 -57.421,58.961c-3.526,2.797 -5.152,1.937 -6.421,1.089c-8.59,-4.072 -30.115,-18.722 -56.189,-35.54c-53.577,-34.563 -122.383,-81.293 -122.383,-81.293c0,0 -3.85,-1.624 3.766,-8.28c8.631,-7.542 27.921,-20.978 33.086,-23.923c0.554,-0.693 2.039,-1.351 4.143,-1.375c8.298,0.567 36.213,2.45 49.131,1.801c4.926,-0.248 4.372,-5.974 4.372,-5.974c0,0 -4.565,-8.524 -6.195,-16.847c-1.62,-8.301 -0.305,-16.403 -0.305,-16.403c0,0 0.488,-41.813 41.592,-42.277c48.84,-1.656 49.959,43.377 49.959,43.377c0,0 0.338,15.707 -3.488,24.42c-0.859,1.959 -1.752,3.67 -2.595,5.157c-1.381,2.434 -9.938,9.704 8.402,7.188c62.694,1.558 349.059,13.958 349.059,13.958c0,0 4.513,0.573 4.554,3.288c0.046,3.141 -4.303,4.139 -4.303,4.139c0,0 -144.921,-2.938 -145.321,-2.695c0,0.003 0,0.004 -0.001,0.002c0,-0.001 0,-0.001 0.001,-0.002ZM797.017,1024.12c-0.016,-0.003 -0.027,-0.003 -0.027,-0.003c0,0 0.011,0.003 0.027,0.003ZM174.693,1096.21c-1.215,-0.535 -2.167,-1.528 -2.647,-2.765l-1.957,-5.034c-0.229,-0.587 -0.338,-1.203 -0.338,-1.812c0,-1.22 0.445,-2.421 1.293,-3.357c0,0 4.132,-4.562 4.792,-5.291c-0.096,-0.051 -0.188,-0.103 -0.278,-0.155c-0.061,-0.033 -0.153,-0.082 -0.153,-0.082c-1.853,-1.002 -5.305,-2.863 -8.809,-5.957c-4.325,-3.818 -7.569,-8.462 -9.649,-13.802c-0.938,-2.415 -2.688,-6.912 -2.688,-12.869c0,-5.924 1.725,-11.931 5.13,-17.849l-0.024,0.041c3.943,-7.019 10.424,-13.609 19.26,-19.585c8.508,-5.757 16.995,-9.425 21.298,-11.098c8.713,-3.392 21.814,-7.436 34.726,-7.436c3.13,0 6.124,0.246 8.899,0.732l-0.035,-0.006c8.467,1.422 15.75,4.893 21.641,10.323c5.837,5.379 8.465,11.093 9.325,13.3c1.907,4.907 2.876,9.884 2.876,14.79c0,6.487 -1.738,12.905 -5.029,18.562c-3.026,5.206 -7.338,9.752 -12.465,13.15c-0.827,0.548 -1.788,0.832 -2.765,0.832c-0.335,0 -0.674,-0.033 -1.006,-0.101c-1.305,-0.27 -2.448,-1.048 -3.177,-2.164l-7.965,-12.192c-0.549,-0.841 -0.813,-1.79 -0.813,-2.732c0,-1.443 0.622,-2.868 1.806,-3.85c1.463,-1.215 3.676,-3.054 5.452,-5.406c1.88,-2.491 2.795,-4.912 2.795,-7.395c0,-1.383 -0.292,-2.827 -0.863,-4.292c-0.445,-1.146 -1.541,-3.338 -3.918,-5.218c-3.119,-2.469 -7.496,-3.722 -13.014,-3.722c-1.135,0 -2.328,0.055 -3.545,0.161c-0.008,0.003 -0.016,0.003 -0.024,0.003c-8.833,0.731 -21.413,5.501 -22.818,6.044l-0.041,0.017l0.024,-0.009c-12.184,4.74 -20.517,9.808 -26.223,15.948l0.008,-0.012c-3.155,3.409 -4.754,6.992 -4.754,10.648c0,1.673 0.32,3.305 0.977,4.988c2.391,6.138 7.458,8.46 8.601,8.913c0.003,0 0.009,0.005 0.011,0.005c0.011,0.006 0.025,0.006 0.036,0.011c2.347,0.827 4.511,1.231 6.603,1.231c1.993,0 3.933,-0.363 5.941,-0.92c-2.169,-5.577 -5.799,-14.907 -5.799,-14.907c-0.226,-0.584 -0.338,-1.198 -0.338,-1.812c0,-0.688 0.139,-1.373 0.423,-2.014c0.532,-1.214 1.528,-2.167 2.764,-2.647l13,-5.056c0.595,-0.232 1.206,-0.341 1.809,-0.341c2.003,0 3.894,1.211 4.664,3.189l13,33.409c0.232,0.595 0.341,1.209 0.341,1.812c0,2 -1.209,3.891 -3.187,4.661l-49.345,19.202c-0.584,0.227 -1.201,0.339 -1.815,0.339c-0.687,0 -1.372,-0.14 -2.013,-0.423ZM208.982,806.155l-9.553,-18.425c-0.374,-0.72 -0.562,-1.509 -0.562,-2.3c0,-0.685 0.142,-1.373 0.426,-2.016c0.611,-1.387 1.82,-2.421 3.282,-2.814c4.555,-1.22 11.096,-3.681 16.392,-8.478c5.327,-4.825 8.337,-11.104 8.945,-18.668c0.055,-0.677 0.082,-1.367 0.082,-2.052c0,-8.677 -4.443,-19.167 -16.957,-20.174c-0.51,-0.041 -1.026,-0.063 -1.542,-0.063c-4.24,0 -10.664,1.417 -17.456,13.653l-13.845,24.968l0.019,-0.036c-2.675,4.915 -6.227,9.895 -10.001,14.029c-4.536,4.964 -9.172,8.555 -13.781,10.675c-0.005,0.003 -0.011,0.006 -0.019,0.008c-3.411,1.55 -9.289,3.398 -17.931,3.398c-1.683,0 -3.441,-0.071 -5.223,-0.216c-5.763,-0.461 -11.185,-2.027 -16.124,-4.65c-4.737,-2.516 -8.907,-5.938 -12.392,-10.173c-6.819,-8.282 -10.573,-19.235 -10.573,-30.84c0,-1.48 0.06,-2.964 0.177,-4.418c0.966,-11.991 4.814,-22.316 11.442,-30.686c6.459,-8.156 15.464,-14.337 26.761,-18.367c0.554,-0.197 1.119,-0.292 1.678,-0.292c1.864,0 3.635,1.045 4.494,2.805l8.79,17.964c0.338,0.693 0.507,1.446 0.507,2.199c0,0.606 -0.109,1.212 -0.33,1.787c-0.496,1.297 -1.512,2.328 -2.8,2.847c-7.22,2.914 -12.454,5.419 -16.219,8.912c-1.916,1.776 -3.359,3.744 -4.418,6.017c-1.193,2.562 -1.913,5.52 -2.197,9.046c-0.041,0.518 -0.063,1.056 -0.063,1.599c0,4.096 1.119,8.156 3.07,11.141c2.3,3.521 5.559,5.404 9.955,5.758c0.477,0.038 0.947,0.058 1.394,0.058c8.481,0 13.227,-6.724 16.056,-11.781l-0.013,0.025l15.499,-28.049c0.019,-0.033 0.038,-0.066 0.058,-0.098c2.3,-3.949 4.952,-7.595 7.886,-10.837c4.592,-5.078 9.706,-8.966 15.199,-11.559c0.049,-0.024 0.106,-0.049 0.156,-0.071l0.393,-0.169c3.282,-1.422 8.775,-3.798 17.718,-3.798c1.424,0 2.908,0.06 4.409,0.183c15.161,1.217 27.468,7.812 35.589,19.071l-0.027,-0.036c3.454,4.697 5.954,9.753 7.436,15.033c1.159,4.132 1.722,8.435 1.722,13.159c0,2.919 -0.213,5.572 -0.385,7.703c-0.445,5.545 -1.943,11.769 -4.211,17.522c-2.854,7.242 -6.715,13.352 -11.477,18.157l0.027,-0.03c-9.286,9.523 -17.742,12.825 -25.205,15.737c-0.595,0.232 -1.209,0.341 -1.815,0.341c-1.817,0 -3.558,-0.996 -4.443,-2.699ZM590.5,762.5l-121,3.501l-2.5,-16.002l4.999,-2.999l15.5,-0.499l109.501,-3.002l2.499,3.002l-3.501,11.999l-5.498,4ZM455.419,760.088c-0.63,-4.042 -1.263,-8.083 -1.263,-8.083c-0.104,-0.671 -0.156,-1.342 -0.156,-2.008c0,-1.684 0.328,-3.329 0.944,-4.857c-2.133,1.991 -4.172,3.864 -5.744,5.299c1.941,3.073 4.05,6.339 6.219,9.649ZM446.19,753.167c-0.054,0.05 -0.111,0.099 -0.169,0.148c0.052,-0.046 0.11,-0.096 0.169,-0.148ZM446.21,753.151c0.027,-0.024 0.052,-0.049 0.079,-0.073c-0.036,0.032 -0.06,0.057 -0.079,0.073ZM452.478,736.514c-0.003,-0.006 -0.009,-0.011 -0.011,-0.017c0.002,0.006 0.005,0.009 0.011,0.017ZM452.459,736.481c0,-0.003 -0.003,-0.003 -0.003,-0.005c0,0 0,0.002 0.003,0.005ZM395.678,725.596c0.003,-0.003 0.011,-0.011 0.011,-0.014l-0.011,0.014ZM1342.16,796.681l-2.565,-25.473c-0.016,-0.167 -0.025,-0.336 -0.025,-0.502c0,-1.777 0.945,-3.436 2.505,-4.334l90.632,-52.139c0.008,-0.005 0.016,-0.008 0.021,-0.014c2.634,-1.498 5.409,-2.993 8.17,-4.431c-3.059,0.434 -3.995,0.568 -4.319,0.598l0.011,0l-97.107,9.777c-0.169,0.016 -0.338,0.024 -0.505,0.024c-2.537,0 -4.712,-1.921 -4.971,-4.497l-1.684,-16.713c-0.017,-0.167 -0.025,-0.336 -0.025,-0.503c0,-1.148 0.396,-2.267 1.127,-3.162c0.841,-1.029 2.052,-1.678 3.37,-1.812l146.059,-14.705c0.169,-0.017 0.338,-0.025 0.504,-0.025c2.538,0 4.713,1.921 4.972,4.497l2.606,25.869c0.017,0.169 0.025,0.335 0.025,0.502c0,1.774 -0.942,3.43 -2.497,4.328l-89.657,51.839c-0.18,0.106 -0.371,0.199 -0.562,0.281c-0.822,0.406 -4.273,2.226 -7.45,3.921c5.608,-0.701 10.31,-1.173 13.783,-1.525l0.069,-0.006l86.36,-8.694c0.169,-0.016 0.339,-0.024 0.505,-0.024c2.538,0 4.713,1.921 4.972,4.497l1.683,16.716c0.017,0.167 0.025,0.336 0.025,0.502c0,1.149 -0.396,2.268 -1.127,3.163c-0.84,1.029 -2.052,1.678 -3.37,1.812l-146.058,14.705c-0.169,0.017 -0.339,0.025 -0.505,0.025c-2.538,0 -4.713,-1.921 -4.972,-4.497ZM1327.59,660.487c-0.696,0 -1.392,-0.145 -2.038,-0.434c-1.212,-0.54 -2.159,-1.542 -2.631,-2.78l-33.927,-88.738c-0.226,-0.587 -0.333,-1.193 -0.333,-1.787c0,-2.012 1.226,-3.905 3.217,-4.667l137.119,-52.425c0.587,-0.227 1.193,-0.333 1.788,-0.333c2.011,0 3.904,1.225 4.666,3.217l32.571,85.185c0.226,0.586 0.333,1.192 0.333,1.787c0,2.011 -1.226,3.905 -3.218,4.666l-16.812,6.429c-0.575,0.221 -1.179,0.331 -1.784,0.331c-0.696,0 -1.392,-0.145 -2.039,-0.434c-1.211,-0.541 -2.158,-1.542 -2.63,-2.781c0,0 -20.207,-52.845 -23.288,-60.901c-6.306,2.412 -24.144,9.232 -30.453,11.644c2.914,7.621 16.716,43.715 16.716,43.715c0.222,0.576 0.331,1.182 0.331,1.787c0,0.696 -0.145,1.389 -0.434,2.039c-0.54,1.209 -1.542,2.156 -2.781,2.63l-17.374,6.642c-0.587,0.224 -1.193,0.33 -1.785,0.33c-2.011,0 -3.907,-1.222 -4.669,-3.217c0,0 -13.663,-35.731 -16.571,-43.341l-36.433,13.93c3.103,8.113 24.502,64.078 24.502,64.078c0.227,0.589 0.333,1.192 0.333,1.787c0,2.011 -1.225,3.905 -3.214,4.666l-17.375,6.645c-0.539,0.207 -1.105,0.316 -1.673,0.329l-0.114,0.001ZM191.663,617.585c0.305,-0.881 0.608,-1.785 0.919,-2.704l0.05,-0.139c2.859,-8.503 5.785,-18.256 5.785,-26.131c0,-4.519 -0.947,-8.077 -2.89,-10.877c-2.186,-3.147 -5.72,-5.507 -10.809,-7.218c-2.721,-0.917 -5.316,-1.381 -7.714,-1.381c-6.41,0 -11.8,3.286 -16.474,10.039c-4.18,6.042 -6.631,13.331 -7.949,17.247c0,0 -1.263,3.752 -2.423,7.201c7.024,2.363 34.724,11.682 41.505,13.963ZM258.562,672.163l-139.136,-46.804c-2.09,-0.704 -3.408,-2.652 -3.408,-4.74c0,-0.526 0.085,-1.067 0.262,-1.593l10.138,-30.14c5.001,-14.866 11.534,-31.588 25.838,-41.868l-0.065,0.047c8.446,-6.274 17.642,-9.455 27.329,-9.455c5.138,0 10.448,0.908 15.78,2.701c8.517,2.865 15.524,7.319 20.832,13.232c3.733,4.161 6.538,8.893 8.577,14.465c0.002,0.006 0.005,0.014 0.008,0.019c1.923,5.341 2.9,11.066 2.9,17.014c0,10.727 -3.042,20.671 -5.894,29.149c0,0 -2.434,7.232 -4.082,12.133c7.927,2.666 50.613,17.024 50.613,17.024c1.258,0.423 2.295,1.329 2.885,2.516c0.346,0.699 0.521,1.46 0.521,2.227c0,0.538 -0.085,1.075 -0.259,1.591l-6.506,19.336c-0.704,2.091 -2.652,3.408 -4.739,3.408c-0.527,0 -1.068,-0.084 -1.594,-0.262ZM1270.86,532.493l-56.983,-81.686c-0.608,-0.871 -0.9,-1.867 -0.9,-2.854c0,-1.58 0.748,-3.136 2.142,-4.107l12.302,-8.582c0.747,-0.524 1.628,-0.83 2.54,-0.89l111.591,-7.127c0.025,0 0.047,-0.003 0.071,-0.003c3.501,-0.175 7.04,-0.268 11.469,-0.298c0.03,0 0.063,0 0.093,0c0.401,0.006 0.835,0.02 1.291,0.036c-0.688,-0.901 -1.61,-2.09 -2.565,-3.321c-2.923,-3.769 -6.561,-8.459 -8.746,-11.592l-22.772,-32.642c-0.59,-0.843 -0.898,-1.844 -0.898,-2.859c0,-0.293 0.025,-0.584 0.077,-0.876c0.231,-1.308 0.974,-2.467 2.063,-3.226l15.256,-10.639c0.871,-0.609 1.867,-0.901 2.855,-0.901c1.58,0 3.135,0.748 4.106,2.142l53.665,76.93c0.608,0.871 0.9,1.867 0.9,2.854c0,1.581 -0.748,3.136 -2.142,4.107l-10.334,7.21c-0.75,0.524 -1.634,0.832 -2.549,0.889l-84.832,5.286l0.014,-0.003c-18.341,1.198 -28.325,1.498 -40.321,1.632c-0.939,0.044 -1.752,0.082 -2.459,0.12c0.41,0.513 0.814,1.037 1.215,1.556c0.578,0.753 1.127,1.462 1.574,1.992c0.055,0.065 0.109,0.133 0.161,0.202l0.42,0.551c2.931,3.866 5.704,7.52 8.378,11.357l26.774,38.383c0.59,0.843 0.898,1.845 0.898,2.86c0,0.292 -0.024,0.584 -0.076,0.876c-0.232,1.307 -0.974,2.467 -2.063,3.225l-15.254,10.64c-0.87,0.608 -1.866,0.9 -2.854,0.9c-1.58,0 -3.136,-0.747 -4.107,-2.142ZM231.47,432.715c-2.597,1.269 -4.707,3.212 -6.45,5.941c-1.908,2.982 -2.836,5.978 -2.836,9.16c0,5.425 2.765,11.415 8.217,17.8c0.013,0.017 0.027,0.033 0.041,0.049c5.665,6.811 15.545,14.883 27.822,22.731c6.942,4.437 13.584,8.063 19.74,10.773c8.613,3.791 16.065,5.714 22.158,5.714c3.329,0 6.246,-0.589 8.667,-1.752c2.609,-1.249 4.707,-3.162 6.421,-5.842c2.071,-3.239 3.078,-6.402 3.078,-9.674c0,-5.411 -2.887,-11.4 -8.582,-17.802c-5.87,-6.601 -14.9,-13.816 -26.838,-21.448c-4.882,-3.122 -12.31,-7.696 -20.419,-11.388c-8.787,-4 -16.343,-6.027 -22.464,-6.027c-3.277,0 -6.153,0.594 -8.555,1.765ZM270.036,528.938c-9.106,-3.313 -18.514,-8.056 -27.964,-14.097c-14.798,-9.464 -34.222,-24.51 -42.714,-42.458l0.006,0.014c-3.848,-8.066 -5.799,-15.887 -5.799,-23.249c0,-4.89 0.862,-9.725 2.568,-14.373c1.274,-3.479 2.996,-6.862 5.414,-10.647c4.963,-7.764 11.384,-13.582 19.082,-17.295c6.628,-3.196 14.171,-4.817 22.417,-4.817c5.599,0 11.485,0.745 17.491,2.219c6.339,1.566 13.5,4.276 21.293,8.052c7.911,3.834 14.214,7.682 17.268,9.633c6.211,3.97 11.99,8.167 17.183,12.479c5.894,4.893 11.044,9.944 15.303,15.016c10.334,12.304 15.573,24.794 15.573,37.128c0,8.751 -2.668,17.363 -7.929,25.599c-4.841,7.569 -10.976,13.305 -18.232,17.047c-6.726,3.468 -14.416,5.225 -22.861,5.225c-8.659,0 -18.114,-1.842 -28.099,-5.476ZM385.118,438.642c-1.327,-0.035 -2.585,-0.595 -3.496,-1.555l-101.123,-106.423c-0.887,-0.931 -1.379,-2.167 -1.379,-3.449c0,-0.041 0.003,-0.082 0.003,-0.123c0.036,-1.326 0.595,-2.584 1.556,-3.496l32.767,-31.135c6.857,-6.519 13.868,-11.415 20.834,-14.556c6.345,-2.862 12.741,-4.311 19.006,-4.311c6.331,0 12.473,1.46 18.253,4.344c4.604,2.293 8.923,5.493 12.492,9.251c4.582,4.819 8.009,9.875 10.19,15.033c1.986,4.688 2.991,9.578 2.991,14.531c0,4.769 -0.896,9.572 -2.735,14.689c-0.791,2.199 -1.691,4.273 -2.619,6.205c9.796,2.982 68.79,20.949 68.79,20.949c1.7,0.518 2.999,1.902 3.408,3.634c0.09,0.382 0.134,0.77 0.134,1.152c0,1.354 -0.549,2.666 -1.556,3.621l-17.399,16.531c-0.944,0.898 -2.183,1.375 -3.446,1.375c-0.527,0 -1.056,-0.081 -1.572,-0.253c0,0 -62.061,-20.611 -67.297,-22.349c-2.437,2.317 -6.939,6.593 -10.585,10.058c5.872,6.181 41.469,43.642 41.469,43.642c0.92,0.966 1.376,2.207 1.376,3.443c0,1.321 -0.522,2.642 -1.556,3.624l-14.934,14.193c-0.931,0.887 -2.167,1.378 -3.45,1.378c-0.041,0 -0.081,-0.003 -0.122,-0.003ZM1166.23,403.842l-15.65,-14.002c-0.988,-0.884 -1.585,-2.125 -1.656,-3.449c-0.006,-0.093 -0.009,-0.185 -0.009,-0.278c0,-1.228 0.451,-2.415 1.272,-3.335c0,0 75.994,-84.933 82.15,-91.815c-5.812,-5.201 -28.169,-25.206 -28.169,-25.206c-1.102,-0.988 -1.665,-2.355 -1.665,-3.728c0,-1.187 0.421,-2.376 1.272,-3.332l12.402,-13.862c0.885,-0.988 2.126,-1.585 3.45,-1.656c0.092,-0.006 0.185,-0.008 0.278,-0.008c1.228,0 2.415,0.45 3.334,1.271l79.296,70.949c0.988,0.887 1.586,2.126 1.657,3.449c0.005,0.093 0.008,0.186 0.008,0.278c0,1.228 -0.45,2.415 -1.274,3.335l-12.405,13.862c-0.986,1.103 -2.353,1.665 -3.725,1.665c-1.187,0 -2.38,-0.42 -3.335,-1.275c0,0 -22.212,-19.876 -28.019,-25.072c-6.159,6.882 -82.15,91.816 -82.15,91.816c-0.988,1.102 -2.358,1.664 -3.731,1.664c-1.187,0 -2.376,-0.42 -3.331,-1.271ZM344.467,353.853c5.777,-5.378 14.956,-14.203 18.747,-19.691c2.338,-3.501 5.01,-8.151 5.01,-13.142c0,-3.872 -1.638,-7.479 -5.002,-11.021c-4.104,-4.317 -8.274,-6.418 -12.746,-6.418c-6.137,0 -13.415,3.959 -21.629,11.763c0,0 -6.917,6.574 -11.021,10.474c4.917,5.173 21.786,22.927 26.641,28.035ZM1082.69,326.46l0.005,-0.001l-0.033,0.011l0.028,-0.01ZM1082.69,326.46c-4.869,1.642 -9.845,2.471 -14.796,2.471c-10.992,0 -20.242,-4.014 -27.842,-7.941l-0.003,0c-2.963,-1.533 -8.743,-5.018 -14.149,-11.13c-6.063,-6.855 -9.7,-14.788 -10.817,-23.574c0,-0.009 0,-0.014 -0.002,-0.022c-0.284,-2.325 -0.429,-4.658 -0.429,-6.937c0,-5.867 0.939,-11.633 2.874,-17.628c1.924,-5.962 4.65,-11.521 6.808,-15.699l44.452,-85.986c0.89,-1.719 2.639,-2.707 4.448,-2.707c0.772,0 1.556,0.18 2.29,0.559l18.121,9.368c1.179,0.608 2.066,1.662 2.47,2.925c0.158,0.497 0.235,1.007 0.235,1.518c0,0.791 -0.186,1.579 -0.557,2.294l-44.913,86.874c-3.984,7.706 -5.922,14.04 -5.922,19.366c0,3.496 0.827,6.506 2.527,9.202c1.998,3.171 5.291,5.957 9.788,8.282c3.046,1.574 6.798,2.477 10.293,2.477c3.804,0 7.248,-1.023 10.233,-3.045c6.159,-4.541 11.15,-13.243 14.815,-20.332l42.615,-82.434c0.609,-1.179 1.662,-2.068 2.926,-2.47c0.496,-0.158 1.007,-0.234 1.517,-0.234c0.791,0 1.58,0.185 2.297,0.556l16.346,8.451c1.716,0.89 2.704,2.639 2.704,4.448c0,0.773 -0.18,1.556 -0.559,2.29l-45.279,87.586c-8.581,16.598 -19.511,27.188 -32.491,31.472ZM606.635,281.112l0.036,0.016c-12.217,-5.305 -18.297,-12.037 -23.664,-17.974c-0.86,-0.95 -1.288,-2.151 -1.288,-3.351c0,-1.193 0.423,-2.383 1.271,-3.332l13.83,-15.475c0.952,-1.064 2.305,-1.67 3.727,-1.67c0.088,0 0.175,0.002 0.262,0.008c1.512,0.079 2.906,0.841 3.793,2.068c3.127,4.339 6.838,7.987 10.732,10.553c4.776,3.149 9.892,4.745 15.205,4.745c2.729,0 5.567,-0.423 8.438,-1.258c4.339,-1.263 8.268,-3.648 11.068,-6.721c3.018,-3.313 4.548,-7.141 4.548,-11.382c0,-1.784 -0.281,-3.656 -0.837,-5.567c-0.906,-3.118 -2.377,-5.457 -4.625,-7.356c-3.251,-2.745 -8.239,-4.62 -14.826,-5.575c0,0 -28.191,-4.061 -28.235,-4.066c-5.537,-0.756 -11.45,-2.306 -16.648,-4.363c-6.252,-2.475 -11.256,-5.534 -14.875,-9.09c-0.005,-0.005 -0.011,-0.011 -0.016,-0.014c-3.356,-3.326 -8.023,-9.583 -11.202,-20.517c-1.121,-3.87 -1.692,-7.807 -1.692,-11.707c0,-19.363 13.939,-36.426 34.686,-42.457c5.861,-1.703 11.66,-2.568 17.227,-2.568c8.11,0 15.854,1.82 23.02,5.414c6.975,3.499 13.426,8.694 19.175,15.44c0.8,0.936 1.195,2.093 1.195,3.244c0,1.231 -0.453,2.459 -1.35,3.417l-13.669,14.596c-0.941,1.009 -2.265,1.583 -3.646,1.583c-0.005,0 -0.013,0 -0.019,0c-1.386,-0.003 -2.712,-0.584 -3.653,-1.605c-8.615,-9.311 -14.501,-14.04 -22.767,-14.04c-2.374,0 -4.983,0.41 -7.752,1.215c-3.365,0.979 -6.686,2.922 -9.115,5.332c-2.777,2.759 -4.188,5.886 -4.188,9.297c0,1.296 0.207,2.66 0.614,4.057c1.211,4.173 3.697,7.213 7.594,9.3c3.283,1.755 6.833,2.445 9.562,2.846l-0.025,-0.003l31.722,4.525c0.038,0.005 0.074,0.011 0.112,0.016c4.511,0.751 8.863,1.935 12.932,3.523c6.377,2.491 11.829,5.889 16.204,10.102c0.04,0.041 0.084,0.085 0.122,0.123l0.306,0.314c2.985,3.069 7.984,8.21 11.232,19.385c1.492,5.13 2.248,10.222 2.248,15.134c0,9.051 -2.499,17.434 -7.433,24.916l0.024,-0.041c-9.629,14.905 -22.654,18.69 -30.436,20.952c-5.09,1.482 -11.153,2.295 -17.066,2.295c-7.982,0 -15.541,-1.482 -21.858,-4.284ZM510.074,332.206c0,0 -56.371,-99.047 -60.939,-107.075c-6.776,3.855 -32.855,18.695 -32.855,18.695c-0.78,0.444 -1.629,0.654 -2.467,0.654c-1.738,0 -3.43,-0.908 -4.352,-2.529l-9.199,-16.166c-0.445,-0.78 -0.655,-1.629 -0.655,-2.466c0,-1.738 0.909,-3.43 2.53,-4.35l92.476,-52.627c0.758,-0.434 1.613,-0.658 2.472,-0.658c0.442,0 0.89,0.06 1.324,0.18c1.279,0.352 2.365,1.195 3.023,2.35l9.199,16.168c0.445,0.78 0.655,1.629 0.655,2.467c0,1.738 -0.909,3.43 -2.53,4.352c0,0 -25.904,14.741 -32.677,18.594c4.568,8.025 60.937,107.08 60.937,107.08c0.444,0.781 0.654,1.629 0.654,2.467c0,1.738 -0.908,3.43 -2.529,4.353l-18.25,10.385c-0.781,0.445 -1.629,0.655 -2.467,0.655c-1.738,0 -3.43,-0.908 -4.35,-2.529ZM733.057,250.148c-13.597,-13.278 -21.254,-35.392 -22.758,-65.725c-0.161,-3.22 -0.24,-6.418 -0.24,-9.507c0,-19.877 3.242,-36.173 9.638,-48.436c4.033,-7.734 9.354,-13.868 15.811,-18.234c7.176,-4.849 15.816,-7.559 25.68,-8.047c0.852,-0.041 1.736,-0.063 2.625,-0.063c7.234,0 21.031,1.539 32.178,11.856c5.089,4.705 9.073,10.354 11.835,16.791c2.189,5.111 3.258,9.771 4.088,14.047c0.062,0.32 0.092,0.639 0.092,0.953c0,2.27 -1.552,4.317 -3.839,4.863l-18.998,4.546c-0.385,0.092 -0.775,0.139 -1.165,0.139c-0.977,0 -1.94,-0.287 -2.767,-0.838c-1.157,-0.772 -1.94,-1.986 -2.164,-3.359c-1.072,-6.565 -3.242,-11.977 -6.273,-15.644c-3.31,-4.006 -7.586,-5.954 -13.071,-5.954c-0.401,0 -0.797,0.011 -1.176,0.03c-5.112,0.253 -9.183,2.153 -12.449,5.809c-3.176,3.553 -5.007,8.11 -6.11,11.229c-3.719,10.544 -4.008,26.311 -4.008,30.89c0,1.591 0.03,2.494 0.038,2.633c0,0.006 0,0.008 0,0.014c0.876,17.68 3.375,31.534 7.425,41.18c2.243,5.34 4.969,9.401 8.104,12.069c3.215,2.737 6.893,4.069 11.248,4.069c0.363,0 0.723,-0.011 1.1,-0.027c3.82,-0.189 7.229,-1.539 10.127,-4.014c1.754,-1.498 3.285,-3.362 4.551,-5.542c3.196,-6.181 3.46,-14.157 3.591,-17.997c0.047,-1.408 0.685,-2.731 1.758,-3.643c0.911,-0.775 2.06,-1.189 3.239,-1.189c0.213,0 0.428,0.013 0.641,0.041l20.155,2.606c2.497,0.322 4.358,2.45 4.358,4.958c0,0.032 0,0.065 0,0.098c-0.129,6.598 -1.267,13.248 -3.291,19.227c-2.32,6.849 -5.733,12.795 -10.154,17.674c-5.717,6.312 -12.621,10.804 -20.523,13.35c-6.416,2.065 -11.911,2.338 -14.864,2.485c-0.682,0.033 -1.375,0.05 -2.074,0.05c-6.964,0 -20.43,-1.739 -32.358,-13.388ZM1140.5,188.529l-16.168,-8.358c-1.719,-0.889 -2.708,-2.639 -2.708,-4.448c0,-0.772 0.181,-1.555 0.56,-2.289l9.368,-18.122c0.608,-1.179 1.662,-2.066 2.925,-2.47c0.497,-0.158 1.007,-0.234 1.517,-0.234c0.792,0 1.58,0.185 2.295,0.556l16.168,8.359c1.72,0.889 2.707,2.638 2.707,4.448c0,0.772 -0.18,1.555 -0.559,2.289l-9.368,18.122c-0.609,1.179 -1.662,2.066 -2.925,2.469c-0.497,0.159 -1.007,0.235 -1.518,0.235c-0.791,0 -1.58,-0.185 -2.294,-0.557ZM950.495,278.416l-19.988,-4.091c-1.299,-0.265 -2.44,-1.037 -3.171,-2.142c-0.543,-0.824 -0.827,-1.782 -0.827,-2.753c0,-0.336 0.033,-0.671 0.101,-1.004c0,0 10.833,-52.931 12.552,-61.33c-7.171,-1.468 -34.369,-7.035 -41.537,-8.503c-1.719,8.402 -12.552,61.33 -12.552,61.33c-0.265,1.299 -1.038,2.439 -2.143,3.171c-0.824,0.543 -1.782,0.827 -2.753,0.827c-0.336,0 -0.671,-0.033 -1.004,-0.102l-19.986,-4.09c-2.369,-0.486 -4,-2.568 -4,-4.893c0,-0.333 0.035,-0.668 0.104,-1.007l29.432,-143.82c0.265,-1.299 1.037,-2.44 2.142,-3.171c0.824,-0.543 1.782,-0.827 2.754,-0.827c0.335,0 0.671,0.033 1.004,0.101l19.985,4.091c2.369,0.485 4.001,2.567 4.001,4.892c0,0.333 -0.036,0.669 -0.104,1.007c0,0 -9.657,47.183 -11.349,55.452c7.171,1.468 34.372,7.034 41.541,8.503c1.691,-8.271 11.349,-55.452 11.349,-55.452c0.264,-1.299 1.036,-2.44 2.142,-3.171c0.824,-0.543 1.781,-0.827 2.753,-0.827c0.335,0 0.671,0.033 1.004,0.101l19.986,4.091c2.368,0.485 4,2.567 4,4.892c0,0.333 -0.035,0.669 -0.103,1.007l-29.433,143.821c-0.486,2.368 -2.568,4 -4.893,4c-0.333,0 -0.668,-0.035 -1.007,-0.103ZM1112.07,173.835l-16.343,-8.451c-1.716,-0.89 -2.704,-2.636 -2.704,-4.448c0,-0.772 0.18,-1.558 0.56,-2.292l9.368,-18.119c0.889,-1.717 2.638,-2.705 4.448,-2.705c0.772,0 1.555,0.181 2.289,0.56l16.343,8.448c1.719,0.89 2.707,2.639 2.707,4.448c0,0.772 -0.181,1.555 -0.56,2.289l-9.368,18.122c-0.608,1.179 -1.662,2.069 -2.925,2.47c-0.496,0.158 -1.007,0.235 -1.517,0.235c-0.791,0 -1.58,-0.186 -2.298,-0.557Z" style="fill:#000b86;"/></g></svg>